<svg xmlns="http://www.w3.org/2000/svg" width="44.629" height="41.648" viewBox="0 0 44.629 41.648">
  <g id="Discussing_criticize" transform="translate(-2.717 -6.688)">
    <path id="Path_378" data-name="Path 378" d="M29.6,26.227H4.793A2.076,2.076,0,0,0,2.717,28.3v16.4a2.076,2.076,0,0,0,2.075,2.076h7.681a1.109,1.109,0,0,1,1.109,1.109v3.872a1.223,1.223,0,0,0,2.039.911l6.1-5.464a1.678,1.678,0,0,1,1.119-.428H29.6a2.076,2.076,0,0,0,2.075-2.075V28.3A2.076,2.076,0,0,0,29.6,26.227Zm-12.4,13.738H9.035a1.029,1.029,0,1,1,0-2.057h8.159a1.029,1.029,0,1,1,0,2.057Zm8.16,0H22.171a1.029,1.029,0,1,1,0-2.057h3.182a1.029,1.029,0,0,1,0,2.057Zm0-5.211H9.035a1.029,1.029,0,1,1,0-2.057H25.353a1.029,1.029,0,0,1,0,2.057Z" transform="translate(0 -4.65)" fill="#052ed8"/>
    <path id="Path_379" data-name="Path 379" d="M50.166,6.688h-24.8a2.075,2.075,0,0,0-2.075,2.076V19.519h11.2a4.138,4.138,0,0,1,4.133,4.133v5.456l4.492,4.026a1.223,1.223,0,0,0,2.039-.91V28.352a1.109,1.109,0,0,1,1.109-1.109h3.9a2.076,2.076,0,0,0,2.075-2.076V8.763a2.075,2.075,0,0,0-2.076-2.076ZM45.924,20.33H40.506a1.029,1.029,0,1,1,0-2.057h5.418a1.029,1.029,0,1,1,0,2.057Zm0-5.054H29.605a1.029,1.029,0,1,1,0-2.057H45.924a1.029,1.029,0,1,1,0,2.057Z" transform="translate(-4.895 0)" fill="#052ed8"/>
  </g>
</svg>
