<svg xmlns="http://www.w3.org/2000/svg" width="42.991" height="43.02" viewBox="0 0 42.991 43.02">
  <path id="_2515845_black_and_white_dark_grey_facebook_icon" data-name="2515845_black and white_dark grey_facebook_icon" d="M57.649,24.617a13.169,13.169,0,0,0-.212-2.31,9.4,9.4,0,0,0-.872-2.679,9.3,9.3,0,0,0-1.79-2.387,8.874,8.874,0,0,0-3.906-2.229,15.659,15.659,0,0,0-4.13-.44.042.042,0,0,1-.008-.021H25.652v.021a22.51,22.51,0,0,0-2.368.106,11.278,11.278,0,0,0-2.528.567,9.163,9.163,0,0,0-5.6,6.123,15.792,15.792,0,0,0-.44,4.1L14.7,46.628h0a20.317,20.317,0,0,0,.195,2.865,9.922,9.922,0,0,0,.881,2.895,9.259,9.259,0,0,0,2.585,3.129,8.4,8.4,0,0,0,2.586,1.4,14,14,0,0,0,4.252.625c.9.005,1.8.028,2.706.025,3.238-.014,6.476,0,9.714,0V43.2H32.789V37.429H37.62V33.291s-.349-6.874,6.426-7.422h5.13V31.1H45.44a2.368,2.368,0,0,0-1.845,1.794v4.433h5.33l-.6,5.53H43.5V57.563q2.034-.01,4.07-.035a15.467,15.467,0,0,0,2.579-.274,8.734,8.734,0,0,0,4.319-2.1,8.957,8.957,0,0,0,2.854-4.759,17.349,17.349,0,0,0,.372-3.765v-.252C57.691,46.279,57.653,24.9,57.649,24.617Z" transform="translate(-14.7 -14.55)" fill="#fff"/>
</svg>
