<svg xmlns="http://www.w3.org/2000/svg" width="43.194" height="43.194" viewBox="0 0 43.194 43.194">
  <path id="Path_375" data-name="Path 375" d="M23.6,2c5.868,0,6.6.022,8.9.13a15.91,15.91,0,0,1,5.244,1,10.53,10.53,0,0,1,3.827,2.49,10.6,10.6,0,0,1,2.49,3.827,15.955,15.955,0,0,1,1,5.244c.1,2.3.13,3.034.13,8.9s-.022,6.6-.13,8.9a15.966,15.966,0,0,1-1,5.244,11.027,11.027,0,0,1-6.317,6.317,15.954,15.954,0,0,1-5.244,1c-2.3.1-3.034.13-8.9.13s-6.6-.022-8.9-.13a15.966,15.966,0,0,1-5.244-1,11.027,11.027,0,0,1-6.317-6.317,15.9,15.9,0,0,1-1-5.244c-.1-2.3-.13-3.034-.13-8.9s.022-6.6.13-8.9a15.9,15.9,0,0,1,1-5.244,10.539,10.539,0,0,1,2.49-3.827,10.576,10.576,0,0,1,3.827-2.49,15.9,15.9,0,0,1,5.244-1C17,2.028,17.729,2,23.6,2Zm0,10.8A10.8,10.8,0,1,0,34.4,23.6,10.8,10.8,0,0,0,23.6,12.8Zm14.038-.54a2.7,2.7,0,1,0-2.7,2.7A2.7,2.7,0,0,0,37.635,12.259ZM23.6,17.118A6.479,6.479,0,1,1,17.118,23.6,6.479,6.479,0,0,1,23.6,17.118Z" transform="translate(-2 -2)" fill="#fff"/>
</svg>
