<svg xmlns="http://www.w3.org/2000/svg" xmlns:xlink="http://www.w3.org/1999/xlink" width="2913.396" height="1798.685" viewBox="0 0 2913.396 1798.685">
  <defs>
    <clipPath id="clip-path">
      <circle id="Ellipse_4" data-name="Ellipse 4" cx="93.655" cy="93.655" r="93.655" transform="translate(0 167.325) rotate(-63.289)" fill="#00c409"/>
    </clipPath>
    <clipPath id="clip-path-3">
      <circle id="Ellipse_7" data-name="Ellipse 7" cx="92.455" cy="92.455" r="92.455" transform="matrix(0.548, -0.836, 0.836, 0.548, 0, 154.659)"/>
    </clipPath>
    <clipPath id="clip-path-4">
      <circle id="Ellipse_8" data-name="Ellipse 8" cx="92.455" cy="92.455" r="92.455" transform="matrix(0.548, -0.836, 0.836, 0.548, 0, 154.659)" fill="#f2c900"/>
    </clipPath>
  </defs>
  <g id="OBJECTS" transform="translate(195.292 80.528)" opacity="0.3">
    <g id="Group_45" data-name="Group 45" transform="translate(0)">
      <g id="Group_100" data-name="Group 100">
        <ellipse id="Ellipse_2" data-name="Ellipse 2" cx="173.966" cy="173.774" rx="173.966" ry="173.774" transform="translate(-195.292 436.12)" fill="#cf3a3a"/>
        <path id="Path_4" data-name="Path 4" d="M1062.57,426.235c-22.183-21.352-45.968-42.089-74.565-53.481-64.616-25.744-137.019,1.114-201.267,27.765C718.583,428.789,644.4,462.7,614,530c-22.239,49.23-14.441,110.684,19.389,152.783,47.89,59.6,131.38,72.355,205.161,92.225,60.756,16.362,126.183,40.085,184.273,15.895,28.019-11.671,50.529-33.318,76.19-49.539,46.721-29.524,100.652-35.2,154.292-34.349C1257.792,614.975,1127.018,488.267,1062.57,426.235Z" transform="translate(1464.686 882.884)" fill="#00c409"/>
        <path id="Path_5" data-name="Path 5" d="M63.257,384.254a14.224,14.224,0,0,1-7.42-9.354,9.124,9.124,0,0,1,.876-6.7c.392-.522.79-1.031,1.2-1.543l-.735.931a3.475,3.475,0,0,1,2.443-2.306c-.079.007-.055-.038.223-.2a8.809,8.809,0,0,1,8.787,0,14.908,14.908,0,0,1,7.653,9.176C78.952,382.034,69.646,387.5,63.257,384.254ZM98.41,352.891c-3.674-4.327-6.337-6.866-12.124-7.33-2.529-.2-4.248,2.2-4.433,4.426-.488,5.866,2.5,9.093,6.107,13.338C94.125,370.58,104.531,360.095,98.41,352.891Zm27.765,41.394c-1.564-2.261-2.258-4.571-4.609-6.2-1.808-1.254-3.5-1.3-5.567-1.7a2.957,2.957,0,0,0-2.876.76c-2.031,2.574-3.224,5.035-2.313,8.413,1.172,4.334,4.822,5.935,8.691,7.4C124.233,404.761,129.007,398.389,126.175,394.286ZM150.84,352.5c-1.962-3.8-4.743-7.241-7.207-10.733-2.914-4.127-10.712-1.8-8.777,3.7,1.584,4.492,2.949,9.128,5.138,13.368C143.7,366.012,154.544,359.672,150.84,352.5Zm-28.414-12.616q-3.722-2.443-7.44-4.887c-3.622-2.378-7.224,2.808-4.478,5.794q3.047,3.315,6.1,6.626C121.157,352.365,128.474,343.86,122.425,339.887ZM46.228,435.5c-2.086-4.5-5.818-6.729-9.684-9.674-3.454-2.629-8.7,2.608-6.066,6.059,2.98,3.9,5.152,7.574,9.688,9.674A4.47,4.47,0,0,0,46.228,435.5ZM48.022,397l-3.471-4.622c-3.945-5.255-12.929-.113-8.932,5.213l3.471,4.622C43.036,407.476,52.022,402.331,48.022,397Zm44.553,27.589q-6.732-5.418-13.458-10.832c-3.842-3.093-11.063,1.041-7.54,5.811l9.977,13.513C87.977,441.794,99.984,430.556,92.575,424.593Zm48.7,24.149q-3.743-3.773-7.485-7.543c-3.712-3.739-10.894,1.34-7.54,5.811l6.327,8.437C137.42,461.919,146.867,454.379,141.272,448.743Zm27.672-24.383c-2-4.341-6.035-6.877-9.654-9.8-6.506-5.262-15.754,3.4-9.4,9.392,3.852,3.639,7.183,7.5,12.382,9.083C167.614,434.663,170.968,428.748,168.944,424.36Zm-2.519-34.5A34.388,34.388,0,0,0,160.184,379c-5.186-6.2-14.028,2.712-8.88,8.87a17.145,17.145,0,0,1,3.01,5.32C157.012,400.743,169.15,397.489,166.425,389.856Zm-66.358,6.468q-3.335-3.021-6.674-6.042c-5.475-4.956-12.262,3.516-6.265,8.114l7.121,5.461C98.572,407.173,104.074,399.949,100.067,396.324Zm105.319-38.212q-6.31-5.83-12.623-11.664c-4.533-4.189-11.337,2.581-6.791,6.784q6.31,5.83,12.619,11.664C203.128,369.085,209.936,362.318,205.386,358.112ZM170.3,334.8q-2.052-2.7-4.107-5.406c-3.145-4.138-9.234-.722-7.018,4.1q1.418,3.073,2.832,6.148C164.621,345.324,174.037,339.722,170.3,334.8Zm-27.923-9.633-5.8-4.6c-4.052-3.217-9.839,2.488-5.746,5.739l5.8,4.6C140.688,334.127,146.475,328.422,142.379,325.171Zm48.738,58.155q-2.732-4.134-5.464-8.272c-3.725-5.639-12.911.058-8.932,5.213q3.052,3.949,6.1,7.9C186.478,392.9,194.616,388.622,191.117,383.326Zm-58.729-12.372-3.732-4.361c-1.9-2.22-5.667.68-4.059,3.131q1.577,2.4,3.151,4.808C130.062,378.061,135.2,374.243,132.388,370.954ZM16.783,469.8c-2.127-4.708-6.313-6.88-11.162-8.2-5.516-1.495-9.337,6.736-3.987,9.44,2.949,1.491,5.382,3.9,8.073,5.822C14.381,480.2,18.66,473.954,16.783,469.8ZM3,427.411l-3.471-3.464c-4.375-4.371-11.169,2.412-6.791,6.784l3.471,3.464C.586,438.567,7.38,431.786,3,427.411Zm18.616-27.538c-1.763-2.632-3.206-3.227-6.193-4.265a2.972,2.972,0,0,0-3.636,3.629c1.024,2.938,1.612,4.413,4.268,6.186C19.4,407.658,23.856,403.214,21.618,399.874Zm22.757-31.119q-3.6-3.335-7.2-6.671c-3.842-3.557-9.31,1.9-5.746,5.739l6.677,7.193C42,379.2,48.572,372.638,44.376,368.755Zm28.208-23.538-5.78-4.626c-5.145-4.117-12.509,3.145-7.313,7.306q2.887,2.315,5.78,4.626C70.415,356.641,77.78,349.376,72.584,345.217ZM89.661,468.634q-2.155-2.98-4.306-5.963c-4.667-6.457-14.046.68-8.7,6.708L81.54,474.9C85.372,479.219,93.121,473.425,89.661,468.634ZM67.883,440.01l-5.523-6.038c-3.213-3.512-8.743,2.007-5.224,5.217q3.021,2.758,6.045,5.516A3.324,3.324,0,0,0,67.883,440.01Zm-8.729,43.381q-3.34-4.175-6.677-8.348c-3.5-4.378-10.19,2-6.268,6.261l7.2,7.825C57.019,493.055,62.339,487.374,59.153,483.391ZM30.5,450.781l-2.313-2.309c-4.038-4.035-10.31,2.223-6.268,6.262l2.313,2.309C28.268,461.077,34.54,454.815,30.5,450.781ZM23.4,515.6q-5.274-4.542-10.544-9.087C7.48,501.883-.39,509.678,5.02,514.341q5.274,4.542,10.544,9.087C20.938,528.06,28.811,520.266,23.4,515.6ZM-.654,488.532l-6.939-4.622c-4.365-2.9-8.437,4.12-4.1,7.007l6.939,4.622C-.393,498.447,3.679,491.419-.654,488.532Zm54.357,23.1L44.452,504.7c-4.186-3.134-8.241,3.907-4.1,7.007l9.251,6.932C53.789,521.782,57.841,514.737,53.7,511.637ZM118.4,473.885q-2.892-2.887-5.784-5.777c-4.038-4.035-10.31,2.227-6.268,6.262l5.784,5.777C116.171,484.181,122.439,477.923,118.4,473.885Zm.529-27.1a35.749,35.749,0,0,1-6.842-6.629c-2.742-3.918-9.6-1.681-8.1,3.413,1.5,5.124,3.921,8.774,8.678,11.331C117.576,457.537,123.7,450.616,118.927,446.78Zm15.846-20.441-7.86-8.324c-4.578-4.849-12.19,2.763-7.313,7.3l8.382,7.8C132.505,437.333,139.024,430.841,134.773,426.339Zm49.907,43.69a99.9,99.9,0,0,0-8.217-7.963c-6.674-6.255-15.465,5.248-7.609,9.853a100.978,100.978,0,0,0,10.008,5.646C183.828,479.755,188.333,474.346,184.68,470.029Zm39.748-50.068-3.471-3.464c-5.048-5.045-12.887,2.78-7.836,7.825l3.471,3.468C221.645,432.831,229.48,425.006,224.428,419.961ZM205.4,440.845l-7.908-6.093c-4.787-3.691-10.1,4.825-4.846,8.282l8.282,5.457C205.816,451.712,209.778,444.217,205.4,440.845Zm-9.629-36c-.711-.485-1.426-.966-2.138-1.45-7.238-4.9-13.956,8.547-4.839,11.465.808.258,1.615.519,2.423.777C197.887,417.768,201.083,408.448,195.77,404.846Zm59.138-8.341-4.626-3.468c-6.468-4.846-12.733,6.042-6.337,10.832l4.626,3.464C255.039,412.184,261.307,401.3,254.908,396.506Zm-30.627-9.9-2.313-2.309c-3.364-3.364-8.592,1.856-5.224,5.217l2.313,2.313C222.425,395.186,227.649,389.969,224.281,386.6ZM243.643,362.1c-6.657,0-6.667,10.331,0,10.331S250.31,362.1,243.643,362.1Zm-53.2-38.59c-4.279,0-4.285,6.64,0,6.64S194.726,323.508,190.44,323.508Zm39.772,15.582L227.9,336.78c-5.048-5.042-12.887,2.78-7.836,7.825l2.313,2.313C227.429,351.96,235.264,344.135,230.212,339.09ZM219.655,353.1l-5.784-5.777c-3.364-3.361-8.592,1.856-5.224,5.217l5.784,5.777C217.8,361.682,223.023,356.465,219.655,353.1Zm43.388,145.827q-8-5.938-16-11.874c-4.533-3.365-9.2,4.4-4.475,7.647l16.379,11.234C263.314,508.935,267.16,501.983,263.043,498.928Zm-61.035,11.836c-7.131,0-7.141,11.069,0,11.069S209.149,510.764,202.008,510.764Zm-43.226-3.117q-4.444-3.2-8.891-6.4c-6.887-4.952-14.375,7.4-6.712,11.468l9.636,5.124C159.648,521.469,164.878,512.028,158.782,507.647Zm65.128-3.983q-6.676-5.459-13.355-10.922c-6.172-5.045-13.355,4.145-6.715,8.691q7.129,4.882,14.252,9.76C222.535,514.242,228.147,507.128,223.91,503.664ZM211.8,548.392l-7.915-4.928c-6.492-4.041-12.709,6.7-5.966,10.193q4.145,2.144,8.289,4.292C212.527,561.224,217.878,552.179,211.8,548.392Zm-34.94-56.2-3.471-2.31c-5.554-3.7-10.736,5.244-5.22,8.918l3.471,2.309C177.192,504.815,182.378,495.873,176.858,492.2Zm-40.59,57.419q-4.232-3.278-8.468-6.561c-7.5-5.808-15.389,6.028-7.609,9.849L130,557.725C134.89,560.128,141.2,553.433,136.268,549.615Zm-23.318-43.473c-7.131,0-7.141,11.069,0,11.069S120.092,506.142,112.951,506.142Zm48.817-28.2a54.516,54.516,0,0,0-17.31-12.265c-6.028-2.684-11.293,6.214-5.22,8.922a47.14,47.14,0,0,1,15.217,10.65C159.06,490.061,166.363,482.748,161.768,477.937ZM98.812,523.191l-7.128-3.148c-4.241-1.873-7.973,3.993-3.729,6.372l6.753,3.784C99.362,532.806,103.5,525.26,98.812,523.191Zm-3.107-23.153q-5.165-4.665-10.327-9.334c-3.519-3.179-8.76,2.024-5.224,5.217q5.165,4.665,10.327,9.334C94,508.437,99.242,503.234,95.706,500.038Zm.082,65.75q-3.206-3.15-6.416-6.3c-5.976-5.863-14.317,4.244-7.162,9.272q3.655,2.572,7.313,5.141C94.386,577.321,99.905,569.826,95.788,565.788ZM81.457,543.305c-2.77-5.725-8.21-9.41-13.881-12.018-4.667-2.148-8.791,4.523-4.1,7.007s8.152,6.124,12.179,9.482A3.71,3.71,0,0,0,81.457,543.305ZM51.84,560.011q-4.5-4.753-8.99-9.5c-4.908-5.186-13.028,2.921-7.836,7.825q4.758,4.49,9.513,8.983C49.369,571.891,56.421,564.853,51.84,560.011ZM23.615,549.093Q22.2,546.6,20.783,544.1c-3.127-5.516-11.54.663-6.963,5.365q1.995,2.052,3.993,4.1C20.763,556.591,25.677,552.725,23.615,549.093Zm26.053-10.75q-2.737-4.134-5.471-8.269c-3.78-5.708-11.839.261-7.54,5.811q3.026,3.907,6.052,7.818C45.775,547.673,52.428,542.515,49.668,538.343ZM1.322,531.951l-2.313-3.464c-2.361-3.54-8.124-.217-5.739,3.351l2.313,3.464C-2.057,538.841,3.7,535.521,1.322,531.951Zm38.8,67.489q-6.1-6.036-12.2-12.073c-3.767-3.725-9.719,2.433-5.746,5.739q6.624,5.516,13.245,11.032C38.657,606.828,43.218,602.5,40.125,599.439ZM17.611,574.565q-3.469-2.892-6.935-5.78c-2.54-2.117-6.213,1.519-3.657,3.653q3.469,2.892,6.935,5.781C16.494,580.332,20.172,576.7,17.611,574.565Zm48.216,20a37.891,37.891,0,0,0-10.963-8.994c-4.622-2.543-8.774,4.767-4.1,7.011a32.09,32.09,0,0,1,9.839,7.2C63.893,603.306,68.821,598.154,65.827,594.563Zm6.691,33.751A56.747,56.747,0,0,0,56.982,617.1c-4.3-2.1-8.021,4.481-3.729,6.371a51.153,51.153,0,0,1,14.568,9.537C70.938,635.926,75.536,631.369,72.519,628.314Zm38.941-28.5-5.784-4.622c-4.413-3.526-10.722,2.7-6.268,6.262l5.784,4.619C109.6,609.6,115.916,603.375,111.459,599.814Zm-.227,32.5L91.551,621.929c-3.773-1.99-7.086,3.605-3.354,5.736q9.655,5.511,19.31,11.018C111.648,641.047,115.432,634.524,111.232,632.311Zm-32.713-53.88-3.21-2.571c-4.7-3.767-9.963,3.629-4.925,6.375l3.657,1.99C77.553,586.14,81.925,581.16,78.519,578.431Zm68.5,15.87q-5.016-3.784-10.035-7.571c-4.09-3.083-8.719,4.313-4.1,7.011q5.392,3.15,10.781,6.3C147.455,602.254,150.334,596.807,147.015,594.3Zm21.19,38.642-12.722-8.086c-4.426-2.815-8.506,4.21-4.1,7.007q6.361,4.047,12.722,8.087C168.528,642.765,172.611,635.744,168.205,632.943Zm-20.036,9.88-16.193-6.932c-3.89-1.663-7.282,4.055-3.354,5.736l16.19,6.932C148.706,650.223,152.094,644.5,148.169,642.824ZM130.3,608.5c-4.753,0-4.763,7.378,0,7.378S135.062,608.5,130.3,608.5ZM120.6,567.41l-5.784-3.468c-4.086-2.45-7.8,3.928-3.729,6.372l5.78,3.464C120.958,576.232,124.676,569.853,120.6,567.41Zm54.811,14.516c-4.753,0-4.763,7.379,0,7.379S180.168,581.926,175.408,581.926Zm-20.441-41.755q-6.624-5.516-13.245-11.031c-2.873-2.392-6.928,1.454-4.179,4.175q6.1,6.036,12.2,12.076C153.166,548.78,158.576,543.178,154.967,540.171Zm23.926,18.85a42.024,42.024,0,0,0-12.382-10.654c-3.316-1.9-6.183,3.062-2.983,5.1a35.792,35.792,0,0,1,10.145,9.578A3.308,3.308,0,1,0,178.893,559.021Zm-15.5,17.623q-8.1-5.2-16.193-10.4c-4.011-2.574-7.719,3.811-3.729,6.371l16.19,10.4C163.679,585.59,167.387,579.208,163.4,576.644Zm21.558-41a37.543,37.543,0,0,0-11.338-8.354c-3.808-1.828-7.148,3.646-3.358,5.736a32.392,32.392,0,0,1,9.468,7.839C182.742,544.47,188.227,539.15,184.955,535.641Zm36.824,57.385a41.881,41.881,0,0,1-10.073-6.7c-5.859-5.316-13.276,3.925-6.715,8.691a51.294,51.294,0,0,0,13.087,6.777C223.164,603.608,226.679,595.4,221.779,593.027Zm-35.366,15.1a50.451,50.451,0,0,0-13.6-8.636c-4.76-2.017-8.9,4.973-4.1,7.011a43.968,43.968,0,0,1,11.956,7.368C184.587,617.286,190.358,611.567,186.412,608.124Zm-16.767,9.818a23.913,23.913,0,0,0-15.059-5.667c-4.282-.107-4.279,6.533,0,6.64a16.539,16.539,0,0,1,10.358,3.722C168.236,625.314,172.968,620.643,169.645,617.942Zm34.7,23.479a47.565,47.565,0,0,1-14.162-5.011c-4.591-2.512-8.578,4.289-4.1,7.011a54.81,54.81,0,0,0,15.908,6.54C207.575,651.288,209.9,642.476,204.341,641.421Zm23.08-12.585q-6.933-2.913-13.86-5.822c-5.251-2.206-7.543,6.361-2.358,8.537q6.933,2.913,13.86,5.822C230.315,639.579,232.611,631.015,227.422,628.837Zm-12.544-14.259-8.1-4.622c-2.894-1.65-5.5,2.811-2.612,4.461l8.1,4.619C215.163,620.688,217.772,616.227,214.878,614.578Zm45.639,6.746a33.439,33.439,0,0,1-13.049-4.787c-3.23-2.017-6.31,3.244-2.983,5.1a38.649,38.649,0,0,0,15.341,4.763C262.7,626.685,263.4,621.757,260.517,621.324Zm-16.352-38.576q-5.691-3.629-11.379-7.251c-4.011-2.553-7.88,4.035-3.729,6.372q5.877,3.31,11.753,6.612C244.557,590.59,247.767,585.04,244.165,582.748Zm-37-15a31.909,31.909,0,0,0-14.568-7.739c-4.622-1.065-6.557,5.811-1.962,7.114a23.9,23.9,0,0,1,10.784,6.365C205.125,577.215,211.029,571.266,207.17,567.75Zm53.649-24.974a41.457,41.457,0,0,1-11.726-6.506c-5.011-3.983-10.746,3.454-5.371,6.952a51.161,51.161,0,0,0,15.135,6.667C263.517,551.106,265.232,544.384,260.819,542.776Zm-39.927-73-9.241-5.794c-3.23-2.024-6.2,3.079-2.983,5.1l9.241,5.794C221.14,476.9,224.109,471.8,220.892,469.778ZM240.1,451.245l-7.911-4.938c-5.268-3.289-10.324,5.437-4.846,8.282l8.282,4.3C240.68,461.517,244.956,454.279,240.1,451.245Zm27.352-8.554-14.066-7.767c-3.753-2.069-7,3.5-3.358,5.736l13.7,8.4C267.785,451.554,271.617,444.99,267.452,442.691Zm15.293-50.941-5.784-5.777c-2.691-2.691-6.873,1.485-4.179,4.175l5.78,5.777C281.26,398.612,285.439,394.44,282.745,391.749Zm-9.4-21.809-9.568-8.928a2.216,2.216,0,0,0-3.134,3.131q4.521,4.727,9.045,9.451C272,376,275.782,372.212,273.349,369.94Zm25.3,64.238a31.755,31.755,0,0,0-13.228-12.193c-5.53-2.708-10.4,5.564-4.846,8.282a22.7,22.7,0,0,1,9.784,8.753C293.574,444.278,301.884,439.467,298.646,434.178Zm3.736,24.586a22.971,22.971,0,0,0-12.121-6.88c-7.014-1.481-9.66,8.3-2.945,10.674a10.661,10.661,0,0,1,5.207,3.808C297.815,473.755,308.6,465.383,302.382,458.764Zm-6.643,29.727-12.784-10.324c-4.763-3.849-11.6,2.9-6.791,6.784l12.784,10.324C293.715,499.124,300.55,492.374,295.739,488.491Zm2.254,55.3c-2.179-3.914-6.8-6.409-10.3-9.124-3.337-2.591-8.076,2.076-4.7,4.694,3.715,2.883,7.464,7.011,12.08,8.22A2.611,2.611,0,0,0,297.993,543.786Zm1.4-27.246-8.014-5.887c-5.368-3.942-10.53,5.017-5.22,8.921l8.014,5.887C299.543,529.4,304.708,520.441,299.4,516.541Zm-44.45-1.436-10.41-5.777c-4.574-2.54-8.678,4.468-4.1,7.011l10.41,5.777C255.424,524.651,259.523,517.644,254.946,515.1Zm10.018,51.783a23.054,23.054,0,0,1-9.169-4.956c-3.382-2.955-8.757.756-6.382,4.918a35.035,35.035,0,0,0,10.715,11.5C267.318,583.394,274.191,569.52,264.964,566.888Zm26.242.316c-2.44-3.608-6.8-4.842-10.324-7.272-2.653-1.832-6.526,1.88-4.55,4.543,3,4.045,6.055,8.372,11.365,8.836C290.7,573.575,292.859,569.644,291.206,567.2Zm-61.55-29.995-12-9.935c-4.32-3.581-10.544,2.364-6.268,6.262l11.478,10.458C227.466,548.185,234.367,541.113,229.656,537.209Zm43.326,57.88q-3.608-1.217-7.22-2.43c-5.035-1.694-7.3,5.371-3.416,8.093q3.181,2.227,6.365,4.45C274.954,609.571,281.064,597.807,272.981,595.089ZM308.4,528.923c-5.5-.595-6.337,7.99-1.275,9.423,3.217.911,5.035,3.553,8.238,4.416a4.85,4.85,0,0,0,5.908-5.9C319.847,531.256,313.537,529.476,308.4,528.923Zm13.9-32.789q-3.763-1.815-7.526-3.622c-3.529-1.7-7.856,2.866-4.475,5.794q3.093,2.68,6.186,5.358C322,508.451,328.3,499.021,322.3,496.134Zm-6.241-47.718-4.626-3.468c-3.8-2.849-7.492,3.553-3.729,6.372l4.626,3.464C316.135,457.637,319.823,451.234,316.06,448.416Z" transform="translate(-33.81 778.791)" fill="#cf3a3a"/>
        <g id="Group_4" data-name="Group 4" transform="translate(203.244 1480.586)">
          <path id="Path_8" data-name="Path 8" d="M159.127,431.674c16.149,4.942,12.554,20.781,8.585,33.263,6.389-11.609,21.5-34.511,36.569-28.919,21.661,8.038-1.306,28.146-8.169,38.119,10.825-7.159,47.584-7.152,36.6,15.207-6.286,12.791-34.538,23.6-47.491,23.837,21.771.618,16.6,21.644.069,26.93-12.746,4.076-24.544,4.54-38.1,4.227,11.654,3.086,13.688,19.376,6.55,28.27-6.413,7.99-17.056,6.378-26,3-12.616-4.76-23.393-14.3-35.648-19.115-3.323-1.306-7.079-1.729-10.695-2.337l1.289.409c-.543-.158-1.069-.309-1.6-.464a23.761,23.761,0,0,1-8.612-2.784l1.333.423c-8.035-3.079-13.441-7.616-14.362-19.634-1-13.015,8.478-25.7,14.362-36.679,6.451-12.045,11.911-25.9,19.7-37.188,9.54-13.839,32.906-16.345,32.724,4.952C129.823,449.043,140.985,426.124,159.127,431.674Z" transform="translate(-59.375 -430.825)" fill="#00c409"/>
          <path id="Path_9" data-name="Path 9" d="M145.361,472.209a3.009,3.009,0,0,1,1.275-1.547c11.014-6.956,16.465-19.75,26.015-28.328,2.945-2.646,7.234,1.77,4.279,4.423-6.114,5.492-10.612,12.454-15.829,18.716,7.581-3.131,15.193-6.22,22.72-9.585,3.595-1.608,6.636,3.749,3.017,5.365-22.307,9.973-44.233,19.087-65.75,30.624,4.365.7,11.392.454,13.987.584a143.784,143.784,0,0,0,18.132.2c3.949-.3,3.822,5.856-.1,6.155-7.612.581-15.451.034-23.053-.495-4.086-.285-12.028.127-15.867-2.677-7.592,4.248-15.96,9.021-24.524,12.691,8.64,2.976,16.685,8.073,25.445,10.733,3.784,1.148,2.069,7.062-1.735,5.908-11.657-3.54-22.266-11.97-34.624-12.729A52.4,52.4,0,0,1,66.651,514.3c-3.962.151-3.846-6,.1-6.155a43.547,43.547,0,0,0,6.3-.76,3.152,3.152,0,0,1-.01-.722c1.467-7.867,5.409-14.527,8.43-21.84,3.55-8.592,6.059-17.633,9.3-26.349,1.375-3.688,7.3-1.99,5.908,1.735-3.248,8.719-5.8,17.73-9.3,26.349-2.629,6.461-6.066,12.482-7.832,19.214,10.258-3.127,20.905-8.877,30.61-14.558a2.934,2.934,0,0,1,.093-.863c4.908-15.379,15.142-28.129,21.8-42.7,1.643-3.595,6.9-.375,5.262,3.2-5.595,12.238-13.87,23.156-19.049,35.559,2.595-1.55,5.093-3.035,7.433-4.371C132.109,478.391,138.69,475.2,145.361,472.209Z" transform="translate(-48.749 -404.767)" fill="#00c409"/>
        </g>
        <g id="Group_7" data-name="Group 7" transform="translate(1345.531 87.193)">
          <path id="Path_14" data-name="Path 14" d="M512.872,75.287c11.358-8.2-.76-13.712-9.131-14.255-8.722-.564-18.379,1.8-26.737.388-.674-6.289,18-28.531,7.884-32.576-4.729-1.89-14.276,6.354-17.224,9.272-4.193,4.145-5.935,11.9-11.035,14.74-5.038-5.279-10.726-32.373-22.974-26.71-6.842,3.165-5.231,29.906-1.852,31.181l1.237.619c-5.822,0-12,.608-17.781.014-4.492-.461-14.3-3.791-17.781.292-7.887,9.245,17.468,25.486,22.263,29.8-3.069,5.059-39.315,19.29-24.39,24.3,4.643,1.56,12.9-.11,17.544-.6,6.165-.646,13.678-5.894,19.451-4.935,1.134,12.056-7.712,23.936-9.073,36.233a4.7,4.7,0,0,0,6.77,4.77c7.389-3.626,13.011-15.386,16.565-20.548,4.021-5.839,5.8-4.818,9.3.354,3.419,5.055,6.55,10.118,10.221,15.025,2.368,3.169,4.64,8.853,9.722,7.416,3.98-1.127,5.148-8.114,5.423-11.705.433-5.646-4.523-19.431.921-22.94,5.608-3.615,19.273,3.289,25.139,3.564,12.894.608,5.859-10.166,1.715-16.077a34.624,34.624,0,0,0-10.5-10.368c-3.777-2.454-9.578-3.725-6.5-8.348C495.431,79.123,507.762,78.982,512.872,75.287Z" transform="translate(-391.759 -25.373)" fill="#cf63bd"/>
          <path id="Path_15" data-name="Path 15" d="M434.675,44.571c-4.89-5.172-13.1-7.31-19.881-4.505-6.949,2.873-9.042,7.567-8.148,13.035a15.907,15.907,0,0,0-.371,4.354c.608,11.289,14.458,17.238,23.771,11.815C437.785,64.762,441.236,51.51,434.675,44.571Z" transform="translate(-356.448 7.405)" fill="#0455bf"/>
        </g>
        <g id="Group_8" data-name="Group 8" transform="translate(32.784 33.516)">
          <path id="Path_16" data-name="Path 16" d="M203.873,367.609l-4.4-10.344a2,2,0,0,0-3.691,0l-4.306,10.142a2.006,2.006,0,0,1-1.062,1.062l-10.344,4.392a2,2,0,0,0,0,3.691l10.138,4.31a2.007,2.007,0,0,1,1.062,1.062l4.392,10.344a2,2,0,0,0,3.691,0l4.31-10.142a2.006,2.006,0,0,1,1.062-1.062l10.348-4.4a2,2,0,0,0,0-3.691l-10.142-4.31A1.978,1.978,0,0,1,203.873,367.609Z" transform="translate(310.433 785.72)" fill="#0455bf"/>
          <path id="Path_17" data-name="Path 17" d="M569.348,357.773l-2.839-6.677a1.293,1.293,0,0,0-2.381,0l-2.78,6.547a1.293,1.293,0,0,1-.684.684l-6.677,2.835a1.293,1.293,0,0,0,0,2.382l6.543,2.78a1.287,1.287,0,0,1,.684.687l2.835,6.677a1.293,1.293,0,0,0,2.382,0l2.784-6.547a1.293,1.293,0,0,1,.684-.684l6.681-2.839a1.293,1.293,0,0,0,0-2.382l-6.547-2.784A1.288,1.288,0,0,1,569.348,357.773Z" transform="translate(1222.578 771.744)" fill="#0455bf"/>
          <path id="Path_18" data-name="Path 18" d="M80.486,39.43l-4.4-10.341a2,2,0,0,0-3.691,0L68.093,39.231a2.006,2.006,0,0,1-1.062,1.062L56.687,44.685a2,2,0,0,0,0,3.691l10.138,4.31a2.006,2.006,0,0,1,1.062,1.062l4.392,10.344a2,2,0,0,0,3.691,0L80.28,53.95a2.006,2.006,0,0,1,1.062-1.062l10.344-4.4a2,2,0,0,0,0-3.691l-10.142-4.31A2,2,0,0,1,80.486,39.43Z" transform="translate(9.783 -13.925)" fill="#0455bf"/>
          <path id="Path_19" data-name="Path 19" d="M178.4,318.125l11.093,1.8a2,2,0,0,0,1.969-3.12l-6.275-9.056a1.993,1.993,0,0,1-.33-1.464l1.808-11.09a2,2,0,0,0-3.121-1.969l-9.056,6.272a2.009,2.009,0,0,1-1.464.33l-11.09-1.808a2.006,2.006,0,0,0-1.973,3.12l6.275,9.059a2.009,2.009,0,0,1,.33,1.464l-1.808,11.093a2,2,0,0,0,3.12,1.969l9.059-6.275A1.98,1.98,0,0,1,178.4,318.125Z" transform="translate(263.533 631.785)" fill="#0455bf"/>
          <path id="Path_20" data-name="Path 20" d="M490.172,129.566l-4.4-10.344a2,2,0,0,0-3.691,0l-4.306,10.142a2.007,2.007,0,0,1-1.062,1.062l-10.344,4.392a2,2,0,0,0,0,3.691l10.138,4.309a2.006,2.006,0,0,1,1.062,1.062l4.392,10.344a2,2,0,0,0,3.691,0l4.31-10.142a2.006,2.006,0,0,1,1.062-1.062l10.344-4.392a2,2,0,0,0,0-3.691l-10.141-4.31A2.022,2.022,0,0,1,490.172,129.566Z" transform="translate(1008.041 205.694)" fill="#0455bf"/>
          <path id="Path_21" data-name="Path 21" d="M740.958,229.12l-4.4-10.341a2,2,0,0,0-3.691,0l-4.306,10.142a2.007,2.007,0,0,1-1.062,1.062l-10.344,4.392a2,2,0,0,0,0,3.691l10.138,4.31a2.006,2.006,0,0,1,1.062,1.062l4.392,10.344a2,2,0,0,0,3.691,0l4.31-10.142a2.007,2.007,0,0,1,1.062-1.062l10.344-4.4a2,2,0,0,0,0-3.691l-10.141-4.309A2.023,2.023,0,0,1,740.958,229.12Z" transform="translate(1619.117 448.282)" fill="#00c409"/>
          <path id="Path_22" data-name="Path 22" d="M455.949,186l-4.4-10.344a2,2,0,0,0-3.691,0L443.556,185.8a2.007,2.007,0,0,1-1.062,1.062l-10.344,4.392a2,2,0,0,0,0,3.691l10.138,4.31a2.006,2.006,0,0,1,1.062,1.062l4.392,10.344a2,2,0,0,0,3.691,0l4.31-10.142a2.006,2.006,0,0,1,1.062-1.062l10.344-4.4a2,2,0,0,0,0-3.691l-10.141-4.31A1.982,1.982,0,0,1,455.949,186Z" transform="translate(924.652 343.214)" fill="#0455bf"/>
          <path id="Path_24" data-name="Path 24" d="M122.245,36.428l-2.835-6.671a1.293,1.293,0,0,0-2.382,0l-2.777,6.54a1.293,1.293,0,0,1-.684.684L106.9,39.813a1.293,1.293,0,0,0,0,2.382l6.536,2.78a1.293,1.293,0,0,1,.684.684l2.832,6.671a1.293,1.293,0,0,0,2.382,0l2.78-6.54a1.293,1.293,0,0,1,.684-.684l6.674-2.835a1.293,1.293,0,0,0,0-2.382l-6.54-2.78A1.264,1.264,0,0,1,122.245,36.428Z" transform="translate(133.182 -11.242)" fill="#0455bf"/>
          <path id="Path_25" data-name="Path 25" d="M193.41,142.25l-2.835-6.671a1.293,1.293,0,0,0-2.382,0l-2.777,6.54a1.293,1.293,0,0,1-.684.684l-6.671,2.832a1.293,1.293,0,0,0,0,2.382l6.536,2.78a1.293,1.293,0,0,1,.684.684l2.832,6.674a1.293,1.293,0,0,0,2.382,0l2.78-6.54a1.293,1.293,0,0,1,.684-.684l6.674-2.835a1.294,1.294,0,0,0,0-2.382l-6.54-2.78A1.282,1.282,0,0,1,193.41,142.25Z" transform="translate(306.586 246.608)" fill="#0455bf"/>
          <path id="Path_26" data-name="Path 26" d="M611.253,481.222l-2.835-6.671a1.293,1.293,0,0,0-2.381,0l-2.777,6.54a1.293,1.293,0,0,1-.684.684l-6.67,2.832a1.293,1.293,0,0,0,0,2.381l6.54,2.78a1.291,1.291,0,0,1,.684.684l2.832,6.671a1.293,1.293,0,0,0,2.381,0l2.78-6.54a1.293,1.293,0,0,1,.684-.684l6.674-2.835a1.294,1.294,0,0,0,0-2.382l-6.54-2.78A1.271,1.271,0,0,1,611.253,481.222Z" transform="translate(1324.72 1072.562)" fill="#0455bf"/>
          <path id="Path_27" data-name="Path 27" d="M728.561,31.27,725.726,24.6a1.293,1.293,0,0,0-2.382,0l-2.777,6.54a1.282,1.282,0,0,1-.684.684l-6.671,2.832a1.294,1.294,0,0,0,0,2.382l6.536,2.78a1.291,1.291,0,0,1,.684.684l2.832,6.671a1.293,1.293,0,0,0,2.382,0l2.78-6.54a1.293,1.293,0,0,1,.684-.684l6.674-2.835a1.293,1.293,0,0,0,0-2.382l-6.54-2.78A1.264,1.264,0,0,1,728.561,31.27Z" transform="translate(1610.561 -23.81)" fill="#0455bf"/>
          <path id="Path_28" data-name="Path 28" d="M572.063,323.865l-2.237-5.268a1.022,1.022,0,0,0-1.88,0l-2.193,5.165a1.011,1.011,0,0,1-.54.54l-5.268,2.237a1.022,1.022,0,0,0,0,1.88l5.162,2.2a1.01,1.01,0,0,1,.539.539l2.237,5.268a1.022,1.022,0,0,0,1.88,0l2.2-5.165a1.012,1.012,0,0,1,.54-.54l5.268-2.237a1.022,1.022,0,0,0,0-1.88l-5.165-2.2A1.011,1.011,0,0,1,572.063,323.865Z" transform="translate(1237.506 692.964)" fill="#0455bf"/>
          <path id="Path_29" data-name="Path 29" d="M326.43,334.6l-2.237-5.268a1.022,1.022,0,0,0-1.88,0l-2.193,5.165a1.023,1.023,0,0,1-.54.54l-5.268,2.237a1.022,1.022,0,0,0,0,1.88l5.162,2.2a1.012,1.012,0,0,1,.54.54l2.237,5.268a1.022,1.022,0,0,0,1.88,0l2.2-5.165a1.023,1.023,0,0,1,.54-.54l5.268-2.237a1.022,1.022,0,0,0,0-1.88l-5.165-2.2A1.012,1.012,0,0,1,326.43,334.6Z" transform="translate(638.987 719.111)" fill="#0455bf"/>
          <path id="Path_30" data-name="Path 30" d="M284.011,460.18l-2.237-5.268a1.022,1.022,0,0,0-1.88,0l-2.193,5.165a1.023,1.023,0,0,1-.54.54l-5.268,2.237a1.022,1.022,0,0,0,0,1.88l5.162,2.2a1.011,1.011,0,0,1,.54.539l2.237,5.268a1.022,1.022,0,0,0,1.88,0l2.2-5.165a1.023,1.023,0,0,1,.54-.54l5.268-2.237a1.022,1.022,0,0,0,0-1.88l-5.165-2.2A1.023,1.023,0,0,1,284.011,460.18Z" transform="translate(535.627 1025.115)" fill="#0455bf"/>
          <path id="Path_31" data-name="Path 31" d="M46.053,269.089l5.65.918a1.02,1.02,0,0,0,1-1.588l-3.2-4.612a1.023,1.023,0,0,1-.168-.746l.921-5.65a1.02,1.02,0,0,0-1.588-1l-4.612,3.2a1.024,1.024,0,0,1-.746.168l-5.65-.921a1.02,1.02,0,0,0-1,1.588l3.2,4.612a1.023,1.023,0,0,1,.168.746l-.921,5.65a1.02,1.02,0,0,0,1.588,1l4.612-3.2A1.036,1.036,0,0,1,46.053,269.089Z" transform="translate(-36.479 542.496)" fill="#0455bf"/>
          <path id="Path_32" data-name="Path 32" d="M140.18,412.617l5.65.918a1.02,1.02,0,0,0,1-1.588l-3.2-4.612a1.023,1.023,0,0,1-.168-.746l.921-5.65a1.02,1.02,0,0,0-1.588-1l-4.612,3.2a1.023,1.023,0,0,1-.746.168l-5.65-.921a1.02,1.02,0,0,0-1,1.588l3.2,4.612a1.023,1.023,0,0,1,.168.746l-.921,5.65a1.02,1.02,0,0,0,1.588,1l4.612-3.2A1.038,1.038,0,0,1,140.18,412.617Z" transform="translate(192.875 892.223)" fill="#0455bf"/>
          <path id="Path_33" data-name="Path 33" d="M280.905,199.574l-2.237-5.268a1.022,1.022,0,0,0-1.88,0l-2.193,5.165a1.018,1.018,0,0,1-.543.54l-5.268,2.237a1.022,1.022,0,0,0,0,1.88l5.162,2.193a1.023,1.023,0,0,1,.54.54l2.237,5.268a1.022,1.022,0,0,0,1.88,0l2.2-5.165a1.011,1.011,0,0,1,.54-.54l5.268-2.237a1.022,1.022,0,0,0,0-1.88l-5.165-2.2A1,1,0,0,1,280.905,199.574Z" transform="translate(528.051 390.111)" fill="#0455bf"/>
          <path id="Path_34" data-name="Path 34" d="M369.3,171.538l-2.237-5.268a1.022,1.022,0,0,0-1.88,0l-2.193,5.165a1.011,1.011,0,0,1-.54.54l-5.268,2.237a1.022,1.022,0,0,0,0,1.88l5.162,2.2a1.023,1.023,0,0,1,.54.54l2.237,5.268a1.022,1.022,0,0,0,1.88,0l2.2-5.165a1.023,1.023,0,0,1,.54-.54l5.268-2.237a1.022,1.022,0,0,0,0-1.88l-5.165-2.2A1.047,1.047,0,0,1,369.3,171.538Z" transform="translate(743.453 321.797)" fill="#0455bf"/>
          <path id="Path_35" data-name="Path 35" d="M159.818,150.869l-2.237-5.268a1.022,1.022,0,0,0-1.88,0l-2.193,5.165a1.023,1.023,0,0,1-.54.54l-5.268,2.237a1.022,1.022,0,0,0,0,1.88l5.162,2.2a1.023,1.023,0,0,1,.54.54l2.237,5.268a1.022,1.022,0,0,0,1.88,0l2.2-5.165a1.023,1.023,0,0,1,.54-.54l5.268-2.237a1.022,1.022,0,0,0,0-1.88l-5.165-2.2A1.023,1.023,0,0,1,159.818,150.869Z" transform="translate(233.013 271.434)" fill="#0455bf"/>
        </g>
        <g id="Group_13" data-name="Group 13" transform="translate(2138.066 665.775)">
          <path id="Path_36" data-name="Path 36" d="M613.814,443.059c18.073-29.926,8.671-68.712-21-86.631s-68.372-8.186-86.445,21.74a63.348,63.348,0,0,0-7.485,47.433,34.348,34.348,0,0,1-3.818,25.706l-.612,1.014a33.7,33.7,0,0,0,11.423,46.268l.66.4a33.7,33.7,0,0,0,46.268-11.427l.062-.1a34.337,34.337,0,0,1,21.51-15.468A63.308,63.308,0,0,0,613.814,443.059Z" transform="translate(-478.262 -347.448)" fill="#f2c900"/>
          <line id="Line_1" data-name="Line 1" y1="83.507" x2="30.751" transform="translate(29.133 37.326)" fill="none" stroke="#f2f2f2" stroke-miterlimit="10" stroke-width="1.175" opacity="0.2"/>
          <line id="Line_2" data-name="Line 2" y1="60.241" x2="65.502" transform="translate(46.66 76.463)" fill="none" stroke="#f2f2f2" stroke-miterlimit="10" stroke-width="1.175" opacity="0.2"/>
          <path id="Path_37" data-name="Path 37" d="M516.887,440.129l-17.833-10.77a25.086,25.086,0,0,1-8.506-34.442l10.4-17.224,58.87,35.552-11.557,19.135A22.855,22.855,0,0,1,516.887,440.129Z" transform="translate(-484.757 -273.753)" fill="#0455bf"/>
          <path id="Path_38" data-name="Path 38" d="M503,359.892c1.557,5.715,6.323,10.3,12.434,9.224a7.286,7.286,0,0,0,5.454-4.165c.9-2.2.038-5.134-2.165-6.011s-4.852.629-5.863,2.791a9.629,9.629,0,0,0,.01,6.973,19.932,19.932,0,0,0,19.668,13.348c3.7-.234,8.121-2.832,7.344-6.447-.79-3.684-6.77-3.835-8.887-.7s-1.127,7.458.863,10.654c2.543,4.09,6.928,7.327,11.757,7.3s12.973-5.794,9.348-8.966c-3.557-3.114-10.028,5.427-8.214,9.794s10.086,6.42,13.65,3.282" transform="translate(-445.605 -320.067)" fill="none" stroke="#0455bf" stroke-linecap="round" stroke-linejoin="round" stroke-miterlimit="10" stroke-width="0.692"/>
          <g id="Group_9" data-name="Group 9" transform="translate(11.093 107.742)">
            <path id="Path_39" data-name="Path 39" d="M489.937,381.944a1.9,1.9,0,0,1-.106-2.206,1.971,1.971,0,0,1,2.663-.67c.282.168,28.414,17.063,58.344,34.473a1.866,1.866,0,0,1,.622,2.612,1.972,1.972,0,0,1-2.653.708c-29.954-17.424-58.107-34.332-58.389-34.5A1.821,1.821,0,0,1,489.937,381.944Z" transform="translate(-489.528 -378.799)" fill="#f2b705"/>
          </g>
          <g id="Group_10" data-name="Group 10" transform="translate(6.539 115.385)">
            <path id="Path_40" data-name="Path 40" d="M488.613,384.168a1.89,1.89,0,0,1-.107-2.206,1.975,1.975,0,0,1,2.663-.674c.282.168,28.414,17.063,58.344,34.473a1.863,1.863,0,0,1,.622,2.612,1.973,1.973,0,0,1-2.653.708c-29.954-17.424-58.107-34.332-58.389-34.5A1.7,1.7,0,0,1,488.613,384.168Z" transform="translate(-488.202 -381.023)" fill="#f2b705"/>
          </g>
          <g id="Group_11" data-name="Group 11" transform="translate(2.531 122.489)">
            <path id="Path_41" data-name="Path 41" d="M487.447,386.235a1.89,1.89,0,0,1-.107-2.206,1.971,1.971,0,0,1,2.663-.67c.282.168,28.414,17.063,58.344,34.473a1.863,1.863,0,0,1,.622,2.612,1.973,1.973,0,0,1-2.653.708c-29.954-17.424-58.107-34.332-58.388-34.5A1.879,1.879,0,0,1,487.447,386.235Z" transform="translate(-487.036 -383.09)" fill="#f2b705"/>
          </g>
          <g id="Group_12" data-name="Group 12" transform="translate(0 130.307)">
            <path id="Path_42" data-name="Path 42" d="M486.709,388.51a1.9,1.9,0,0,1-.107-2.206,1.971,1.971,0,0,1,2.663-.67c.282.168,24.651,15.637,54.577,33.047a1.863,1.863,0,0,1,.622,2.612,1.973,1.973,0,0,1-2.653.708c-29.954-17.424-54.344-32.9-54.622-33.071A2.044,2.044,0,0,1,486.709,388.51Z" transform="translate(-486.3 -385.365)" fill="#f2b705"/>
          </g>
        </g>
        <g id="Group_15" data-name="Group 15" transform="translate(1699.353 1398.833)">
          <path id="Path_43" data-name="Path 43" d="M718.381,507.273A107.188,107.188,0,1,1,604.466,407.266,107.189,107.189,0,0,1,718.381,507.273Z" transform="translate(-471.538 -407.036)" fill="#052ed8"/>
          <g id="Group_14" data-name="Group 14" transform="translate(50.744 24.837)">
            <path id="Path_44" data-name="Path 44" d="M551.929,437.343c-.862,4.674-6.9,7.176-11.578,6.313a8.608,8.608,0,0,1,3.127-16.929C548.152,427.59,552.792,432.669,551.929,437.343Z" transform="translate(-451.427 -384.244)" fill="#00c409"/>
            <path id="Path_45" data-name="Path 45" d="M561.664,453.156a8.608,8.608,0,1,1-6.9-10.028A8.609,8.609,0,0,1,561.664,453.156Z" transform="translate(-423.929 -344.283)" fill="#00c409"/>
            <path id="Path_46" data-name="Path 46" d="M544.073,471.6a8.608,8.608,0,1,1-6.9-10.028A8.607,8.607,0,0,1,544.073,471.6Z" transform="translate(-466.792 -299.344)" fill="#00c409"/>
            <path id="Path_47" data-name="Path 47" d="M523.877,446.8a5.2,5.2,0,1,1-10.234-1.89c.522-2.825,3.529-6.282,6.354-5.76S524.4,443.974,523.877,446.8Z" transform="translate(-499.551 -353.755)" fill="#00c409"/>
            <path id="Path_48" data-name="Path 48" d="M559.141,419.28a4.243,4.243,0,1,1-3.4-4.945A4.244,4.244,0,0,1,559.141,419.28Z" transform="translate(-408.982 -414.263)" fill="#00c409"/>
            <path id="Path_49" data-name="Path 49" d="M570.337,441.7a6.228,6.228,0,1,1-4.993-7.255A6.228,6.228,0,0,1,570.337,441.7Z" transform="translate(-391.294 -365.342)" fill="#00c409"/>
            <path id="Path_50" data-name="Path 50" d="M526.964,447.37c-2.45,4.072-9.237,3.959-13.31,1.512a8.607,8.607,0,1,1,8.87-14.753C526.6,436.576,529.415,443.294,526.964,447.37Z" transform="translate(-509.481 -368.861)" fill="#00c409"/>
            <path id="Path_51" data-name="Path 51" d="M543.677,443.754a6.052,6.052,0,0,1-8.3,2.069c-2.863-1.722-4.406-5.938-2.684-8.8s6.055-3.289,8.918-1.567A6.049,6.049,0,0,1,543.677,443.754Z" transform="translate(-454.687 -365.114)" fill="#00c409"/>
            <path id="Path_52" data-name="Path 52" d="M531.76,457.622a6.051,6.051,0,0,1-8.3,2.069c-2.863-1.722-4.406-5.938-2.684-8.8s6.055-3.289,8.918-1.567A6.044,6.044,0,0,1,531.76,457.622Z" transform="translate(-483.722 -331.316)" fill="#00c409"/>
            <path id="Path_53" data-name="Path 53" d="M565.968,470.108a8.607,8.607,0,1,1-2.942-11.812A8.608,8.608,0,0,1,565.968,470.108Z" transform="translate(-410.795 -309.972)" fill="#00c409"/>
            <path id="Path_54" data-name="Path 54" d="M542.958,467.438a5.149,5.149,0,1,1-1.76-7.066A5.149,5.149,0,0,1,542.958,467.438Z" transform="translate(-451.206 -303.706)" fill="#00c409"/>
            <path id="Path_55" data-name="Path 55" d="M534.932,428.455a8.607,8.607,0,1,1-2.942-11.812A8.608,8.608,0,0,1,534.932,428.455Z" transform="translate(-486.415 -411.465)" fill="#00c409"/>
          </g>
          <path id="Path_56" data-name="Path 56" d="M777.887,443.718c-3.536-9.953-22.266-12.973-39.738-13.551a107.088,107.088,0,0,1,2.67,13.554c11.379.643,20.768,2.2,23.964,4.22a23.489,23.489,0,0,1-5.066,4.681,152.9,152.9,0,0,1-18.135,11.4c-57.059,31-155.391,47.515-202.315,42.851-2.787-.278-5.44-.608-7.842-1.034-21.534-3.828-23.407-8.526-23.417-8.554-.1-2.615,8.317-9.657,21.922-16.245a108.13,108.13,0,0,1-2.072-13.726c-14.018,6.217-34.407,17.675-33.081,31.263,1.271,13,20.194,17.84,34.318,20.348a135.909,135.909,0,0,0,18.678,1.763c8.371.292,17.771.113,27.95-.55,49.715-3.234,117.039-17.554,163.749-40.2a176.973,176.973,0,0,0,28.17-16.661C771.01,460.8,781.251,453.2,777.887,443.718Z" transform="translate(-494.715 -350.674)" fill="#f2b705"/>
        </g>
        <g id="Group_17" data-name="Group 17" transform="translate(1675.486 1144.946)">
          <g id="Group_16" data-name="Group 16">
            <path id="Path_57" data-name="Path 57" d="M222.444,371.475c3.557,4.351,60.42,63.423,60.42,63.423l21.2-17.575-85.277-89.559C214.9,338.064,219.066,367.34,222.444,371.475Z" transform="translate(-217.224 -323.547)" fill="#f2b705"/>
            <path id="Path_58" data-name="Path 58" d="M259.511,335.136s-33.019-12.733-41.257-7.21l85.913,90.226,15.052-12.475Z" transform="translate(-214.715 -326.537)" fill="#f2b705"/>
            <path id="Path_59" data-name="Path 59" d="M263.215,377.124a1.689,1.689,0,0,0,2.389.058,1.813,1.813,0,0,0,.265-.323,1.693,1.693,0,0,0-.2-2.065l-20.565-21.6-2.6,2.158Z" transform="translate(-155.646 -261.581)" fill="#35343d"/>
            <path id="Path_60" data-name="Path 60" d="M218.36,328.282a10.121,10.121,0,0,0-.68,1.485l85.277,89.559,2.605-2.158-85.913-90.226A4.129,4.129,0,0,0,218.36,328.282Z" transform="translate(-216.113 -325.55)" fill="#f2b705"/>
          </g>
          <path id="Path_61" data-name="Path 61" d="M280.369,366.818c-1.309-1.643-2.608-3.237-3.873-4.76q-.546-.66-1.083-1.3c-1.12-1.333-2.519-2.928-4.045-4.626-8.557,14.681-17.135,29.435-25.892,44.109,7.567,7.255,16.778,15.1,23.259,17.355,14.819,5.162,31.435-9.148,28.528-23.18-1.361-6.571-8.568-17.018-15.846-26.273C281.07,367.7,280.72,367.257,280.369,366.818Z" transform="translate(-148.382 -254.422)" fill="#052ed8"/>
          <path id="Path_62" data-name="Path 62" d="M276.932,351.35l-40.04,31.724s18.688,17.915,22.6,21.953c.381.4.773.8,1.182,1.21,1.34,1.368,2.8,2.828,4.347,4.337.4.388.808.784,1.22,1.179l.155.144c8.757-14.674,17.334-29.428,25.892-44.109C285.8,360.56,276.932,351.35,276.932,351.35Z" transform="translate(-169.301 -266.076)" fill="#052ed8"/>
          <path id="Path_63" data-name="Path 63" d="M309.871,369.838l-54.629,49.154a12.494,12.494,0,0,1-17.64-.931l-4.454-4.949a12.494,12.494,0,0,1,.931-17.64l54.629-49.154a12.494,12.494,0,0,1,17.64.931L310.8,352.2A12.49,12.49,0,0,1,309.871,369.838Z" transform="translate(-186.231 -286.145)" fill="#052ed8"/>
        </g>
        <g id="Group_19" data-name="Group 19" transform="translate(864.482 1336.831)">
          <g id="Group_18" data-name="Group 18" transform="translate(45.448)">
            <path id="Path_64" data-name="Path 64" d="M649.708,245.561c-3.9,4.048-55.835,67.492-55.835,67.492L613.83,332.03l78.854-95.267C681.992,234.123,653.413,241.715,649.708,245.561Z" transform="translate(-593.873 -236.217)" fill="#f2b705"/>
            <path id="Path_65" data-name="Path 65" d="M677.552,278.67s8.739-34.294,2.282-41.821l-79.441,95.975L614.558,346.3Z" transform="translate(-577.989 -234.678)" fill="#f2b705"/>
            <path id="Path_66" data-name="Path 66" d="M594.378,287.251a1.689,1.689,0,0,0,.223,2.378,1.721,1.721,0,0,0,.35.223,1.684,1.684,0,0,0,2.024-.447l19.018-22.974-2.454-2.333Z" transform="translate(-593.588 -168.282)" fill="#35343d"/>
            <path id="Path_67" data-name="Path 67" d="M680.087,236.875a9.6,9.6,0,0,0-1.553-.5L599.68,331.644l2.454,2.333L681.575,238A4.158,4.158,0,0,0,680.087,236.875Z" transform="translate(-579.723 -235.828)" fill="#f2b705"/>
          </g>
          <path id="Path_68" data-name="Path 68" d="M632.9,299.545c1.478-1.495,2.908-2.973,4.268-4.409.392-.412.78-.825,1.162-1.227,1.193-1.268,2.608-2.846,4.117-4.564-15.589-6.763-31.253-13.537-46.859-20.5-6.31,8.372-13.008,18.444-14.485,25.149-3.375,15.327,12.8,30.133,26.39,25.589,6.365-2.127,15.888-10.52,24.218-18.84Q632.307,300.145,632.9,299.545Z" transform="translate(-580.648 -156.705)" fill="#0455bf"/>
          <path id="Path_69" data-name="Path 69" d="M646.362,295.342,610.13,259.333S594.548,280.008,591,284.369c-.347.426-.7.863-1.062,1.316-1.2,1.491-2.478,3.114-3.794,4.832q-.51.665-1.024,1.351c-.041.055-.082.113-.127.168,15.606,6.959,31.27,13.736,46.859,20.5C638.265,305.229,646.362,295.342,646.362,295.342Z" transform="translate(-570.059 -179.892)" fill="#0455bf"/>
          <path id="Path_70" data-name="Path 70" d="M646.06,327.791,590.8,279.355a12.493,12.493,0,0,1-1.162-17.627l4.389-5.007a12.49,12.49,0,0,1,17.626-1.162L666.914,304a12.49,12.49,0,0,1,1.162,17.627l-4.388,5.007A12.49,12.49,0,0,1,646.06,327.791Z" transform="translate(-566.297 -196.633)" fill="#0455bf"/>
        </g>
        <g id="Group_23" data-name="Group 23" transform="translate(132.246 1019.185)">
          <circle id="Ellipse_3" data-name="Ellipse 3" cx="93.655" cy="93.655" r="93.655" transform="translate(0 167.325) rotate(-63.289)" fill="#0455bf"/>
          <g id="Group_22" data-name="Group 22" transform="translate(0 0)">
            <g id="Group_20" data-name="Group 20" transform="translate(0)" clip-path="url(#clip-path)">
              <path id="Path_71" data-name="Path 71" d="M114.826,307.326c-3.12-2.928-8.416-2.282-11.76.388s-5.134,6.8-6.475,10.867-2.409,8.3-4.791,11.86c-4.811,7.19-14.087,10.293-18.393,18.156a12.235,12.235,0,0,0-1.464,7.9c1.162,6.695,7.475,8.434,12.856,7.681,3.852-.54,7.461-2.141,11.2-3.2a40.632,40.632,0,0,1,23.806.722,5.583,5.583,0,0,1,.271,10.409,30.917,30.917,0,0,0-6.378,3.509c-5.378,3.925-9.214,10.75-7.619,17.214,1.1,4.464,4.492,7.945,7.746,11.193q10.8,10.779,21.6,21.561c4.316,4.31,9.475,8.977,15.936,7.124a12.355,12.355,0,0,0,8.159-8.791c2.062-7.33-.9-14.486-4.165-21.008-2.99-5.969-6.378-11.983-6.048-18.888a13.932,13.932,0,0,1,2.553-7.561c4.791-6.55,11.966-4.251,18.389-5.22,10.77-1.629,18.149-12.688,19.042-23.544s-3.23-21.458-7.739-31.373" transform="translate(41.868 -275.03)" fill="#00c409"/>
            </g>
            <g id="Group_21" data-name="Group 21" transform="translate(0)" clip-path="url(#clip-path)">
              <path id="Path_72" data-name="Path 72" d="M42.383,391.945c1.055,9.571,2.175,19.369,6.447,28s12.4,16,22.015,16.6c7.11.443,13.881-2.766,20.871-4.155s15.644-.124,18.881,6.227c2.382,4.674.921,10.262.78,15.5-.478,17.627,14.056,31.586,27.435,43.075,4.481,3.849,9.073,7.767,14.551,9.984s12.1,2.471,17.008-.821c4.626-3.107,6.942-8.836,7.275-14.4s-1.041-11.069-2.406-16.472q-4.232-16.785-8.464-33.566c-2.488-9.867-6.612-21.427-16.513-23.757-7.722-1.818-15.7,3.076-23.541,1.887a15.431,15.431,0,0,1-7.684-27.012c2.725-2.32,6.2-3.643,8.87-6.024s4.368-6.609,2.289-9.523c-3.742-5.244-13.427.2-18.066-4.268-2.2-2.124-2.224-5.722-1.148-8.588s3.024-5.31,4.406-8.042c5.475-10.829.918-24.565-7.561-33.246s-20.08-13.441-31.335-17.977" transform="translate(-29.78 -275.105)" fill="#00c409"/>
            </g>
          </g>
        </g>
        <g id="Group_27" data-name="Group 27" transform="translate(1958.406 1110.828)">
          <circle id="Ellipse_6" data-name="Ellipse 6" cx="91.013" cy="91.013" r="91.013" transform="matrix(0.548, -0.836, 0.836, 0.548, 0, 153.562)" fill="#052ed8"/>
          <g id="Group_26" data-name="Group 26" transform="translate(-1.998 -0.682)">
            <g id="Group_24" data-name="Group 24" transform="translate(0)" clip-path="url(#clip-path-3)">
              <path id="Path_73" data-name="Path 73" d="M592.9,375.375c-4.074,1.114-6.26,5.907-5.739,10.1s3.083,7.831,5.806,11.056,5.746,6.312,7.513,10.149c3.571,7.761,1.4,17.166,5.8,24.846a12.075,12.075,0,0,0,5.889,5.306c6.232,2.475,10.955-1.941,13.1-6.864,1.533-3.519,2.046-7.384,3.09-11.077a40.113,40.113,0,0,1,12.886-19.665,5.511,5.511,0,0,1,8.9,5.139,30.5,30.5,0,0,0-.335,7.178c.527,6.553,4.3,13.3,10.561,15.291,4.326,1.376,9,.318,13.416-.744q14.642-3.53,29.287-7.055c5.855-1.41,12.443-3.345,14.216-9.737a12.2,12.2,0,0,0-3.191-11.4c-5.1-5.516-12.655-6.717-19.833-7.331-6.567-.562-13.378-.813-19.016-4.65a13.747,13.747,0,0,1-5.048-6.047c-3.044-7.412,2.6-12.264,5.09-18.171,4.186-9.9-1.316-21.82-9.995-28.17s-19.728-8.347-30.4-9.67" transform="translate(-527.762 -321.677)" fill="#f2c900"/>
            </g>
            <g id="Group_25" data-name="Group 25" transform="translate(0)" clip-path="url(#clip-path-4)">
              <path id="Path_74" data-name="Path 74" d="M627.292,451.022c8.6,4.05,17.427,8.159,26.892,9.014s19.868-2.185,25.331-9.967c4.039-5.757,4.832-13.113,7.268-19.711s7.967-13.231,14.977-12.68c5.16.4,9.115,4.518,13.451,7.342,14.593,9.492,33.836,4.458,50.408-.873,5.554-1.787,11.217-3.631,15.909-7.1s8.323-8.913,8.082-14.74c-.227-5.495-3.854-10.4-8.368-13.549s-9.855-4.835-15.106-6.473q-16.312-5.1-32.618-10.187c-9.586-3-21.446-5.488-28.516,1.648-5.512,5.561-5.509,14.8-10.554,20.786a15.23,15.23,0,0,1-26.7-7.464c-.545-3.491.133-7.094-.5-10.571s-3.309-7.083-6.836-6.836c-6.347.443-6.755,11.4-12.913,13-2.922.761-5.963-1.082-7.82-3.463s-2.908-5.286-4.5-7.855c-6.291-10.194-20.2-13.444-31.881-10.784s-21.673,9.971-31.295,17.1" transform="translate(-565.306 -232.435)" fill="#f2c900"/>
            </g>
          </g>
        </g>
        <g id="Group_36" data-name="Group 36" transform="translate(283.143 625.854)">
          <path id="Path_81" data-name="Path 81" d="M197.686,210.573s-55.715-25.809-79.122,1.821-25.634,32.765-22.4,41.669c4.22,11.678,52.2,6.9,52.2,6.9Z" transform="translate(-52.491 -139.446)" fill="#00c409"/>
          <path id="Path_82" data-name="Path 82" d="M196.411,230.189s8.251,60.849-25.046,75.084c-33.315,14.224-38.862,14.836-46.429,9.135-9.9-7.478,8.787-51.911,8.787-51.911Z" transform="translate(13.423 -64.97)" fill="#00c409"/>
          <path id="Path_83" data-name="Path 83" d="M213.552,269.808c19.922-23.221,39.831-55.928,26.441-74.094-16.651-22.565-54.869-12.685-85.294-1.577C169.033,223.273,189.358,248.635,213.552,269.808Z" transform="translate(92.997 -182.113)" fill="#cf3a3a"/>
          <path id="Path_84" data-name="Path 84" d="M169.2,219.271s-69.321,19.255-73.221,47.838,29.6,19.015,29.6,19.015-56.3,25.462-39.978,54.254,54.093-8.856,54.093-8.856-3.5,8.169,6.794,22.915c18.238,26.15,76.926-57.485,76.926-57.485Z" transform="translate(-82.624 -91.574)" fill="#cf3a3a"/>
          <path id="Path_85" data-name="Path 85" d="M152.57,223s-47.6,13.214-50.278,32.844S122.613,268.9,122.613,268.9s-38.659,17.479-27.455,37.257c11.214,19.761,37.15-6.076,37.15-6.076s-2.4,5.605,4.657,15.726c12.533,17.956,52.828-39.466,52.828-39.466Z" transform="translate(-57.048 -82.475)" fill="#f2c900"/>
          <path id="Path_86" data-name="Path 86" d="M268.942,185.611C136.508,245.718,107.815,301.285,107.815,301.285c6.086,48.484,54.21,77.682,54.21,77.682-3.512,2.45,61.715-.8,165.77-117.684C303.6,240.113,283.273,214.75,268.942,185.611Z" transform="translate(-21.242 -173.591)" fill="#052ed8"/>
          <g id="Group_35" data-name="Group 35" transform="translate(154.343 74.561)">
            <path id="Path_87" data-name="Path 87" d="M191.226,274.63c-15.884,11.1-42.425,9.953-54.742-7.712s-13.492-42.693,6.54-56.646c15.881-11.09,40.525-7.945,52.845,9.722S207.1,263.547,191.226,274.63Z" transform="translate(-127.535 -203.809)" fill="#272727"/>
            <path id="Path_88" data-name="Path 88" d="M185.214,219.1a31.147,31.147,0,0,0-25.38-13.152,30.075,30.075,0,0,0-17.613,5.244c-16.3,11.358-15.351,31.731-5.313,46.092,8.179,11.75,24.115,14.506,36.7,10.2a31.166,31.166,0,0,0,7.825-3.907C194.37,254.558,195.253,233.467,185.214,219.1Z" transform="translate(-122.451 -198.6)" fill="#f2f2f2"/>
          </g>
        </g>
        <g id="Group_37" data-name="Group 37" transform="translate(2219.34 888.752)">
          <path id="Path_89" data-name="Path 89" d="M684.219,306.909s-14.382,2.1-19.359-7.592-6.767-19.864-4.375-22.06,24.073-3.334,28.864.3,5.818,10.987,5.818,10.987S688.03,300.149,684.219,306.909Z" transform="translate(-613.339 -218.167)" fill="#f2c900"/>
          <path id="Path_90" data-name="Path 90" d="M686.57,299.507s-15.723-.818-17.685-9.375-1.144-20.111.7-23.734,16.915.632,23.733,2.688,7.313,20.259,7.313,20.259A49.315,49.315,0,0,0,686.57,299.507Z" transform="translate(-593.069 -243.077)" fill="#f2c900"/>
          <path id="Path_91" data-name="Path 91" d="M688.98,299.075s-10.966-14.578-10.351-18.228S688.492,261.867,692.1,259s18.334,10.729,20.551,15.207-4.059,23.153-4.962,24.033C707.692,298.247,697.716,296.12,688.98,299.075Z" transform="translate(-566.632 -258.612)" fill="#f2c900"/>
          <path id="Path_92" data-name="Path 92" d="M695.016,296.672s-4.426-16.527-3.464-22.187,14.427-13.544,20.861-12.96,10.633,17.152,10.808,21.819S706.5,303.3,706.5,303.3Z" transform="translate(-535.415 -251.587)" fill="#f2c900"/>
          <path id="Path_93" data-name="Path 93" d="M700.9,290.075s1.711-13.613,3.65-15.747,13.272-3.7,15.987-2.67,3.457,11.887,1.89,15.675-13.6,7.409-13.6,7.409Z" transform="translate(-512.292 -227.617)" fill="#f2c900"/>
          <path id="Path_94" data-name="Path 94" d="M676.2,302.051s13.049,17.871,15.321,27.222,14.369,7.581,20.043,5.921,11.179-3.275,11-8.636-6.5-25.514-5.079-34.088" transform="translate(-572.487 -176.112)" fill="#f2c900"/>
          <path id="Path_95" data-name="Path 95" d="M696.861,296.645s13.049,17.871,15.32,27.218,14.369,7.581,20.042,5.921,11.179-3.275,11-8.636-6.5-25.514-5.079-34.085" transform="translate(-522.146 -189.284)" fill="#f2c900"/>
          <path id="Path_96" data-name="Path 96" d="M672.961,312.174c2.289-.577,3.55-1.028,3.55-1.028,10.042-3.636,22.084-5.461,35.439-7.121.625-3.072,1.45-6.107,2.333-9.124C699.612,298.8,685.646,304.218,672.961,312.174Z" transform="translate(-580.381 -170.188)" fill="#f2c900"/>
          <path id="Path_97" data-name="Path 97" d="M689.158,295.735c-.784,3.406-1.526,6.815-2.2,10.2,3.3-.4,6.677-.815,10.093-1.254.694-3.729,1.522-7.372,2.361-11.014C695.97,294.3,692.547,294.979,689.158,295.735Z" transform="translate(-546.273 -173.205)" fill="#f2c900"/>
          <path id="Path_98" data-name="Path 98" d="M692.257,294.609c-.839,3.639-1.667,7.286-2.361,11.014,2.715-.35,5.475-.732,8.255-1.134.533-3.749,1.189-7.488,1.914-11.214Q696.147,293.9,692.257,294.609Z" transform="translate(-539.117 -174.148)" fill="#f2c900"/>
          <path id="Path_99" data-name="Path 99" d="M694.213,296.651c-.725,3.725-1.382,7.464-1.914,11.214a264.484,264.484,0,0,0,35.009-7.217c1.43-.409,2.8-.832,4.141-1.265.351-2.519.732-5.011,1.117-7.492C719.741,293.235,706.853,294.633,694.213,296.651Z" transform="translate(-533.261 -177.522)" fill="#f2c900"/>
          <path id="Path_100" data-name="Path 100" d="M704.807,292.386c-.385,2.481-.766,4.973-1.117,7.492,2.691-.866,5.169-1.784,7.5-2.732q.144-2.732.292-5.457Q708.147,292.034,704.807,292.386Z" transform="translate(-505.506 -178.017)" fill="#f2c900"/>
          <path id="Path_101" data-name="Path 101" d="M706.164,292.677q-.144,2.722-.292,5.457a74.358,74.358,0,0,0,13.211-6.853C714.8,291.767,710.484,292.22,706.164,292.677Z" transform="translate(-500.189 -179.006)" fill="#f2c900"/>
          <path id="Path_102" data-name="Path 102" d="M686.639,296.445c-.883,3.021-1.708,6.052-2.334,9.124,2.976-.368,6.025-.732,9.121-1.107.674-3.382,1.416-6.794,2.2-10.2C692.608,294.94,689.6,295.658,686.639,296.445Z" transform="translate(-552.74 -171.735)" fill="#f2c900"/>
          <path id="Path_103" data-name="Path 103" d="M885.456,261.054c-13.936,3.646-25.778,13.489-24.1,31.9s14.207,26.29-.529,33.985-54.972-40.748-90.982-31.676-45.687,37.425-59.121,59.43-50.649,10.461-58.461,7.269-14.932,12.279,22.5,28.655c29.816,13.045,54.873,8.812,63.843,6.55,36.126-22.661,82.586-24.768,126.314-29.713,15.351-10.245,18.427-22.713,22.1-32.837,5.141-14.138,4.327-13.692,7.743-15.75s27.741,1.117,30-27.62S899.388,257.407,885.456,261.054Z" transform="translate(-646.022 -255.176)" fill="#f2c900"/>
          <path id="Path_104" data-name="Path 104" d="M671.558,304.484s13.049,17.871,15.321,27.218,14.369,7.581,20.042,5.921,11.179-3.275,11-8.636-6.5-25.514-5.08-34.085" transform="translate(-583.8 -170.183)" fill="#f2c900"/>
          <path id="Path_105" data-name="Path 105" d="M692.218,299.078s13.049,17.871,15.321,27.222,14.369,7.581,20.042,5.921,11.179-3.275,11-8.636-6.5-25.514-5.079-34.088" transform="translate(-533.459 -183.356)" fill="#f2c900"/>
          <path id="Path_106" data-name="Path 106" d="M695.308,275.971c.567,2.162-3.11,5-8.21,6.334s-9.695.66-10.258-1.5,3.11-5,8.21-6.334S694.741,273.806,695.308,275.971Z" transform="translate(-571.07 -221.648)" fill="#f2c900"/>
          <path id="Path_107" data-name="Path 107" d="M703.771,274.975c.567,2.165-3.107,5-8.21,6.334s-9.695.66-10.258-1.5,3.11-5,8.21-6.334S703.2,272.81,703.771,274.975Z" transform="translate(-550.449 -224.074)" fill="#f2c900"/>
          <path id="Path_108" data-name="Path 108" d="M686.8,280.563c.392,1.5-2.158,3.468-5.694,4.4s-6.722.457-7.114-1.041,2.155-3.468,5.691-4.4S686.4,279.061,686.8,280.563Z" transform="translate(-577.975 -208.826)" fill="#f2c900"/>
          <path id="Path_109" data-name="Path 109" d="M688.486,282.545c.392,1.5-1.6,3.323-4.461,4.072s-5.5.138-5.887-1.364,1.609-3.323,4.464-4.072S688.094,281.043,688.486,282.545Z" transform="translate(-567.884 -204.395)" fill="#f2c900"/>
          <path id="Path_110" data-name="Path 110" d="M691.68,278.947c.392,1.5-1.605,3.323-4.464,4.072s-5.492.137-5.887-1.364,1.6-3.323,4.464-4.072S691.285,277.445,691.68,278.947Z" transform="translate(-560.112 -213.162)" fill="#f2c900"/>
          <path id="Path_111" data-name="Path 111" d="M701.687,278.111c.5,1.918-2.306,4.316-6.272,5.354s-7.588.323-8.09-1.595,2.306-4.316,6.272-5.354S701.185,276.194,701.687,278.111Z" transform="translate(-545.523 -216.145)" fill="#f2c900"/>
          <path id="Path_112" data-name="Path 112" d="M732.8,277.349a6.677,6.677,0,1,1-6.677-6.677A6.678,6.678,0,0,1,732.8,277.349Z" transform="translate(-467.121 -229.226)" fill="#f2c900"/>
          <circle id="Ellipse_9" data-name="Ellipse 9" cx="2.608" cy="2.608" r="2.608" transform="translate(263.896 36.23)" fill="#f2c900"/>
        </g>
        <g id="Group_38" data-name="Group 38" transform="translate(141.052 211.927)">
          <path id="Path_113" data-name="Path 113" d="M99.3,140.272s14.08,9.86,24.49,2.272,17.709-17.386,16.348-20.977-23.661-16.321-30.651-15.028-11.99,8.513-11.99,8.513S98.869,131.1,99.3,140.272Z" transform="translate(95.71 47.441)" fill="#f2c900"/>
          <path id="Path_114" data-name="Path 114" d="M102.771,128.245s17.042,7.5,23.665-.505,11.9-20.637,11.88-25.445-18.2-8.324-26.5-9.777-18.5,17.513-18.5,17.513A58.3,58.3,0,0,1,102.771,128.245Z" transform="translate(85.522 13.307)" fill="#f2c900"/>
          <path id="Path_115" data-name="Path 115" d="M103.405,125.939s19.338-9.568,20.627-13.75S123.7,86.9,121.41,81.95s-25.074,1.588-29.8,5.138-8.021,26.617-7.533,28.029C84.077,115.117,95.748,118.175,103.405,125.939Z" transform="translate(62.9 -16.595)" fill="#f2c900"/>
          <path id="Path_116" data-name="Path 116" d="M93.929,122.266s13.465-15.1,15.458-21.6-8.038-21.977-15.145-24.778S73.89,88.36,71.227,93.2s7.055,29.974,7.055,29.974Z" transform="translate(30.57 -27.841)" fill="#f2c900"/>
          <path id="Path_117" data-name="Path 117" d="M81,111.2s5.426-15.29,4.516-18.575S73.459,81.65,70.043,81.3,60.069,92.022,59.712,96.854s10.43,15.059,10.43,15.059Z" transform="translate(3.618 -13.845)" fill="#f2c900"/>
          <path id="Path_118" data-name="Path 118" d="M126.8,145.379s-23.287,11.939-30.658,20.61-19.211.368-24.321-4.4-10.069-9.4-7.028-14.97,20.431-23.5,23.489-33.308" transform="translate(13.751 64.17)" fill="#f2c900"/>
          <path id="Path_119" data-name="Path 119" d="M107.848,128.685s-23.287,11.939-30.655,20.61-19.211.368-24.321-4.4-10.073-9.4-7.031-14.97,20.431-23.5,23.489-33.308" transform="translate(-32.428 23.493)" fill="#f2c900"/>
          <path id="Path_120" data-name="Path 120" d="M109.244,157.813c-2.11-1.828-3.2-2.973-3.2-2.973-8.674-9.183-20.427-17.51-33.648-26.363.973-3.581,1.711-7.22,2.385-10.88C88.2,129.512,100.072,142.66,109.244,157.813Z" transform="translate(34.538 74.611)" fill="#f2c900"/>
          <path id="Path_121" data-name="Path 121" d="M79.945,120.95c-.983,4.014-2.01,8.011-3.1,11.942-3.272-2.172-6.619-4.409-10-6.691,1.247-4.306,2.313-8.6,3.361-12.887C73.515,115.809,76.769,118.352,79.945,120.95Z" transform="translate(21.034 64.175)" fill="#f2c900"/>
          <path id="Path_122" data-name="Path 122" d="M75.968,117.259c-1.048,4.292-2.114,8.581-3.361,12.887q-4.026-2.722-8.117-5.588c1.43-4.244,2.725-8.543,3.938-12.863Q72.233,114.443,75.968,117.259Z" transform="translate(15.281 60.23)" fill="#f2c900"/>
          <path id="Path_123" data-name="Path 123" d="M94.556,129.714c-1.213,4.32-2.509,8.619-3.938,12.863a312.271,312.271,0,0,1-33.146-26.235c-1.292-1.193-2.522-2.371-3.7-3.536.969-2.846,1.89-5.681,2.8-8.506C69.406,112.534,82.276,120.865,94.556,129.714Z" transform="translate(-10.85 42.211)" fill="#f2c900"/>
          <path id="Path_124" data-name="Path 124" d="M61.156,107.34c-.911,2.825-1.835,5.66-2.8,8.506-2.382-2.347-4.512-4.633-6.468-6.873q1.3-2.964,2.595-5.921Q57.819,105.2,61.156,107.34Z" transform="translate(-15.435 39.168)" fill="#f2c900"/>
          <path id="Path_125" data-name="Path 125" d="M61.792,108.966Q60.5,111.92,59.2,114.887a87.862,87.862,0,0,1-10.313-14.262C53.149,103.412,57.465,106.189,61.792,108.966Z" transform="translate(-22.745 33.256)" fill="#f2c900"/>
          <path id="Path_126" data-name="Path 126" d="M81.194,122.615c-.674,3.66-1.412,7.3-2.385,10.88-2.945-1.973-5.973-3.976-9.049-6.018,1.086-3.932,2.117-7.928,3.1-11.942Q77.109,119.01,81.194,122.615Z" transform="translate(28.122 69.589)" fill="#f2c900"/>
          <path id="Path_127" data-name="Path 127" d="M102.285,72.229c12.781,11.258,20.063,27.957,8.509,46.508s-28.985,20.221-17.506,36.181S173.025,141.1,206.24,169.826s28.366,63.825,30.858,94.216,47.945,37.975,57.894,38.762,9.245,20.912-39.006,18.31c-38.435-2.072-62.653-19.864-70.925-27.019-26.115-43.147-74.077-70.073-117.643-98.542-10.774-18.984-7.389-33.789-5.894-46.443,2.086-17.668,2.708-16.764.192-20.754s-29.9-13.568-17-45.123S89.5,60.97,102.285,72.229Z" transform="translate(-41.278 -61.668)" fill="#f2c900"/>
          <path id="Path_128" data-name="Path 128" d="M130.409,150.418s-23.287,11.939-30.655,20.61-19.211.368-24.321-4.4-10.069-9.4-7.028-14.97,20.434-23.5,23.489-33.308" transform="translate(22.552 76.448)" fill="#f2c900"/>
          <path id="Path_129" data-name="Path 129" d="M111.461,133.724S88.174,145.663,80.8,154.334s-19.211.368-24.321-4.4-10.073-9.4-7.028-14.97,20.431-23.5,23.489-33.308" transform="translate(-23.628 35.771)" fill="#f2c900"/>
          <path id="Path_130" data-name="Path 130" d="M87.354,98.037c-1.749,1.983.625,6.935,5.306,11.059s9.891,5.853,11.636,3.866-.625-6.935-5.306-11.056S89.1,96.051,87.354,98.037Z" transform="translate(69.59 24.946)" fill="#f2c900"/>
          <path id="Path_131" data-name="Path 131" d="M78.943,92.487c-1.749,1.983.625,6.935,5.3,11.056s9.891,5.853,11.636,3.866-.625-6.935-5.306-11.056S80.692,90.5,78.943,92.487Z" transform="translate(49.096 11.42)" fill="#f2c900"/>
          <path id="Path_132" data-name="Path 132" d="M89.274,105.6c-1.213,1.378.433,4.811,3.677,7.667s6.856,4.059,8.069,2.681-.433-4.811-3.677-7.667S90.487,104.219,89.274,105.6Z" transform="translate(74.698 43.98)" fill="#f2c900"/>
          <path id="Path_133" data-name="Path 133" d="M84.721,105.826c-1.213,1.378-.072,4.365,2.55,6.674s5.732,3.065,6.945,1.687.069-4.365-2.553-6.674S85.931,104.452,84.721,105.826Z" transform="translate(63.395 44.259)" fill="#f2c900"/>
          <path id="Path_134" data-name="Path 134" d="M83.263,100.332c-1.213,1.378-.072,4.365,2.55,6.674s5.729,3.065,6.942,1.687.072-4.365-2.55-6.674S84.476,98.954,83.263,100.332Z" transform="translate(59.842 30.865)" fill="#f2c900"/>
          <path id="Path_135" data-name="Path 135" d="M76.357,95.444c-1.55,1.76.141,5.784,3.78,8.99s7.846,4.375,9.4,2.615-.144-5.784-3.78-8.99S77.907,93.685,76.357,95.444Z" transform="translate(42.795 18.639)" fill="#f2c900"/>
          <path id="Path_136" data-name="Path 136" d="M45.026,76.753a7.9,7.9,0,1,0,10.605-3.505A7.9,7.9,0,0,0,45.026,76.753Z" transform="translate(-34.205 -35.513)" fill="#f2c900"/>
          <path id="Path_137" data-name="Path 137" d="M45.042,71.487a3.084,3.084,0,1,0,4.141-1.368A3.082,3.082,0,0,0,45.042,71.487Z" transform="translate(-32.911 -41.884)" fill="#f2c900"/>
        </g>
        <path id="Path_141" data-name="Path 141" d="M300.973,74.83a23.326,23.326,0,0,1-5.145-.505q-.35,2.3-.7,4.6c-.44,2.863-5.028,1.835-4.42-1.041q.469-2.206.935-4.413a39.246,39.246,0,0,0-4.866-.832,2.017,2.017,0,0,1-.155-4.028c1.945-.227,4.048-.43,6.162-.516l1.588-7.478c.478-2.248,3.777-1.4,3.437.808q-.521,3.4-1.045,6.8a15.3,15.3,0,0,1,5.433,1.4C304.671,70.889,303.657,74.727,300.973,74.83ZM272.229,68.6a15.32,15.32,0,0,0-5.433-1.4q.521-3.4,1.045-6.8c.34-2.213-2.959-3.059-3.437-.808q-.794,3.737-1.588,7.478c-2.11.082-4.213.285-6.158.516a2.017,2.017,0,0,0,.155,4.028,38.1,38.1,0,0,1,4.866.832q-.469,2.206-.935,4.413c-.612,2.873,3.98,3.9,4.419,1.038q.351-2.3.7-4.6a22.917,22.917,0,0,0,5.145.505C273.686,73.7,274.7,69.861,272.229,68.6Zm59.2,2.87a15.32,15.32,0,0,0-5.433-1.4q.521-3.4,1.045-6.8c.34-2.213-2.959-3.055-3.437-.808l-1.588,7.478c-2.11.082-4.213.285-6.158.516a2.017,2.017,0,0,0,.155,4.028,38.724,38.724,0,0,1,4.866.832q-.469,2.206-.935,4.413c-.612,2.873,3.98,3.9,4.42,1.038q.351-2.3.7-4.6a23.14,23.14,0,0,0,5.145.505C332.889,76.573,333.9,72.734,331.429,71.473Zm34.748,2.151a15.32,15.32,0,0,0-5.433-1.4q.521-3.4,1.041-6.8c.34-2.213-2.959-3.055-3.437-.808q-.794,3.737-1.588,7.478c-2.11.082-4.213.285-6.158.516a2.018,2.018,0,0,0,.155,4.031,38.106,38.106,0,0,1,4.866.832l-.938,4.413c-.608,2.873,3.98,3.9,4.42,1.038q.351-2.3.7-4.6a23.326,23.326,0,0,0,5.145.505C367.634,78.724,368.648,74.885,366.177,73.624Zm-54.519,37.16a23.326,23.326,0,0,1-5.145-.505q-.35,2.3-.7,4.6c-.44,2.863-5.028,1.835-4.42-1.041q.469-2.206.935-4.413a39.194,39.194,0,0,0-4.863-.832,2.017,2.017,0,0,1-.155-4.028c1.945-.227,4.048-.43,6.162-.516q.794-3.737,1.588-7.478c.478-2.248,3.777-1.406,3.437.808q-.521,3.4-1.041,6.8a15.32,15.32,0,0,1,5.433,1.4C315.356,106.839,314.338,110.678,311.658,110.785Zm-28.747-6.231a15.319,15.319,0,0,0-5.433-1.4q.521-3.4,1.041-6.8c.34-2.213-2.959-3.059-3.437-.808l-1.588,7.475c-2.11.082-4.217.285-6.158.516a2.017,2.017,0,0,0,.155,4.028,38.709,38.709,0,0,1,4.866.828q-.469,2.206-.935,4.413c-.608,2.876,3.98,3.9,4.42,1.038q.351-2.3.7-4.6a23.121,23.121,0,0,0,5.145.505C284.367,109.651,285.385,105.812,282.91,104.554Zm59.2,2.87a15.319,15.319,0,0,0-5.433-1.4q.521-3.4,1.041-6.8c.34-2.213-2.959-3.059-3.437-.808l-1.588,7.475c-2.11.082-4.213.285-6.158.516a2.017,2.017,0,0,0,.155,4.028,38.108,38.108,0,0,1,4.866.832q-.469,2.206-.935,4.413c-.612,2.876,3.98,3.9,4.42,1.038q.351-2.3.7-4.6a23.125,23.125,0,0,0,5.145.509C343.57,112.524,344.584,108.685,342.113,107.424Zm34.744,2.151a15.318,15.318,0,0,0-5.437-1.4l1.041-6.8c.34-2.213-2.959-3.059-3.437-.808q-.794,3.737-1.588,7.478c-2.11.082-4.213.285-6.158.516a2.018,2.018,0,0,0,.155,4.031,38.107,38.107,0,0,1,4.866.832q-.469,2.206-.935,4.413c-.608,2.873,3.98,3.9,4.42,1.038q.351-2.3.7-4.6a23.123,23.123,0,0,0,5.145.509C378.315,114.675,379.332,110.836,376.858,109.575ZM291.729,140a23.125,23.125,0,0,1-5.145-.509q-.351,2.3-.7,4.6c-.44,2.863-5.031,1.835-4.42-1.041q.469-2.206.935-4.413a38.623,38.623,0,0,0-4.866-.832,2.018,2.018,0,0,1-.155-4.031c1.945-.227,4.048-.43,6.159-.516l1.588-7.475c.478-2.248,3.777-1.406,3.437.808l-1.041,6.8a15.3,15.3,0,0,1,5.433,1.4C295.423,136.054,294.409,139.893,291.729,140Zm-28.751-6.231a15.319,15.319,0,0,0-5.433-1.4l1.041-6.8c.34-2.213-2.959-3.059-3.437-.808l-1.588,7.475c-2.11.086-4.213.285-6.159.516a2.017,2.017,0,0,0,.155,4.028,38.117,38.117,0,0,1,4.866.832l-.938,4.413c-.608,2.876,3.98,3.9,4.419,1.041q.351-2.3.7-4.6a23.12,23.12,0,0,0,5.145.505C264.438,138.865,265.452,135.027,262.978,133.769Zm59.2,2.87a15.318,15.318,0,0,0-5.433-1.4l1.041-6.8c.34-2.213-2.959-3.059-3.437-.808l-1.588,7.475c-2.11.082-4.213.285-6.158.516a2.017,2.017,0,0,0,.155,4.028,38.111,38.111,0,0,1,4.866.832q-.469,2.206-.935,4.413c-.608,2.873,3.98,3.9,4.42,1.038q.351-2.3.7-4.6a23.327,23.327,0,0,0,5.145.509C323.641,141.738,324.655,137.9,322.181,136.638Zm34.748,2.151a15.319,15.319,0,0,0-5.433-1.4q.521-3.4,1.045-6.8c.34-2.213-2.959-3.059-3.437-.808q-.794,3.737-1.588,7.478c-2.11.082-4.213.285-6.158.516a2.018,2.018,0,0,0,.155,4.031,38.11,38.11,0,0,1,4.866.832q-.469,2.206-.935,4.413c-.612,2.873,3.98,3.9,4.419,1.038q.351-2.3.7-4.6a23.326,23.326,0,0,0,5.145.509C358.386,143.89,359.4,140.051,356.929,138.79Z" transform="translate(597.47 141.969)" fill="#e4e1e8"/>
        <path id="Path_142" data-name="Path 142" d="M734.24,438.288A24.337,24.337,0,0,1,729,437.027l-1.392,4.65c-.866,2.894-5.461,1.175-4.42-1.708q.8-2.211,1.6-4.423a40.387,40.387,0,0,0-4.907-1.557,2.1,2.1,0,0,1,.423-4.186c2.045.041,4.248.134,6.44.351q1.361-3.748,2.718-7.5c.818-2.254,4.107-.911,3.437,1.327q-1.031,3.438-2.059,6.88a15.909,15.909,0,0,1,5.416,2.224C738.629,434.745,737.027,438.567,734.24,438.288Zm-28.813-10.557a15.906,15.906,0,0,0-5.416-2.224q1.031-3.438,2.058-6.88c.67-2.237-2.619-3.584-3.437-1.33q-1.356,3.748-2.719,7.5c-2.192-.216-4.4-.309-6.44-.35a2.1,2.1,0,0,0-.423,4.186,40.76,40.76,0,0,1,4.908,1.553q-.8,2.211-1.6,4.426c-1.045,2.883,3.55,4.605,4.416,1.708l1.392-4.65a24.339,24.339,0,0,0,5.245,1.261C706.2,433.205,707.8,429.384,705.427,427.731ZM766.2,439.185a15.91,15.91,0,0,0-5.416-2.224q1.031-3.438,2.058-6.88c.67-2.237-2.619-3.584-3.437-1.33q-1.356,3.748-2.719,7.5c-2.193-.216-4.4-.309-6.44-.35a2.1,2.1,0,0,0-.423,4.186,40.2,40.2,0,0,1,4.907,1.557q-.8,2.211-1.6,4.423c-1.045,2.883,3.55,4.605,4.416,1.708l1.392-4.65a24.345,24.345,0,0,0,5.244,1.261C766.974,444.663,768.575,440.842,766.2,439.185Zm35.6,7.2a15.9,15.9,0,0,0-5.416-2.224q1.031-3.438,2.059-6.88c.67-2.237-2.619-3.584-3.437-1.33q-1.361,3.748-2.719,7.5c-2.192-.216-4.4-.309-6.44-.351a2.1,2.1,0,0,0-.423,4.186,39.59,39.59,0,0,1,4.907,1.557q-.8,2.211-1.6,4.423c-1.045,2.883,3.55,4.605,4.416,1.708l1.392-4.65a24.334,24.334,0,0,0,5.244,1.261C802.574,451.866,804.176,448.045,801.8,446.388Zm-61.7,30.579a24.3,24.3,0,0,1-5.244-1.261l-1.392,4.65c-.866,2.9-5.461,1.175-4.416-1.708q.8-2.212,1.605-4.426a40.227,40.227,0,0,0-4.911-1.553,2.1,2.1,0,0,1,.423-4.186c2.045.041,4.248.134,6.44.35q1.361-3.748,2.719-7.5c.818-2.254,4.107-.911,3.437,1.326q-1.031,3.438-2.059,6.88a15.9,15.9,0,0,1,5.416,2.224C744.488,473.424,742.887,477.246,740.1,476.968ZM711.287,466.41a15.906,15.906,0,0,0-5.416-2.224q1.031-3.438,2.058-6.88c.67-2.237-2.619-3.584-3.437-1.327q-1.361,3.748-2.719,7.5c-2.193-.216-4.4-.309-6.44-.351a2.1,2.1,0,0,0-.423,4.186,40.186,40.186,0,0,1,4.908,1.557q-.8,2.211-1.6,4.423c-1.045,2.883,3.55,4.6,4.416,1.708l1.392-4.65a24.344,24.344,0,0,0,5.244,1.261C712.056,471.888,713.661,468.067,711.287,466.41Zm60.773,11.454a15.906,15.906,0,0,0-5.416-2.224q1.031-3.438,2.059-6.88c.67-2.237-2.619-3.584-3.437-1.33q-1.361,3.748-2.718,7.5c-2.193-.216-4.4-.309-6.44-.351a2.1,2.1,0,0,0-.423,4.186,40.452,40.452,0,0,1,4.911,1.557q-.8,2.211-1.6,4.423c-1.045,2.883,3.55,4.605,4.416,1.708l1.392-4.65a24.343,24.343,0,0,0,5.244,1.261C772.83,483.343,774.435,479.521,772.06,477.865Zm35.6,7.2a15.906,15.906,0,0,0-5.416-2.224q1.026-3.438,2.058-6.88c.67-2.237-2.619-3.584-3.437-1.326q-1.361,3.748-2.718,7.5c-2.193-.216-4.4-.309-6.44-.35a2.1,2.1,0,0,0-.423,4.186,40.189,40.189,0,0,1,4.907,1.557q-.8,2.212-1.6,4.426c-1.045,2.883,3.55,4.6,4.416,1.708l1.392-4.65a24.344,24.344,0,0,0,5.245,1.261C808.43,490.546,810.035,486.724,807.66,485.068ZM715.287,504.3a24.341,24.341,0,0,1-5.244-1.261l-1.392,4.65c-.866,2.9-5.461,1.175-4.416-1.708q.8-2.212,1.6-4.423A40.218,40.218,0,0,0,700.932,500a2.1,2.1,0,0,1,.419-4.186c2.045.041,4.248.134,6.44.35q1.356-3.747,2.719-7.5c.818-2.254,4.1-.911,3.437,1.33q-1.031,3.438-2.058,6.88A15.91,15.91,0,0,1,717.3,499.1C719.679,500.756,718.074,504.578,715.287,504.3Zm-28.813-10.561a15.909,15.909,0,0,0-5.416-2.224q1.031-3.438,2.058-6.88c.67-2.237-2.619-3.584-3.437-1.33q-1.361,3.748-2.719,7.5c-2.193-.216-4.4-.309-6.44-.351a2.1,2.1,0,0,0-.423,4.186,39.58,39.58,0,0,1,4.907,1.557q-.8,2.211-1.6,4.423c-1.045,2.883,3.55,4.605,4.416,1.708l1.392-4.65a24.125,24.125,0,0,0,5.244,1.261C687.247,499.22,688.849,495.4,686.474,493.742ZM747.248,505.2a15.905,15.905,0,0,0-5.416-2.223q1.031-3.438,2.059-6.88c.67-2.237-2.619-3.584-3.437-1.326q-1.356,3.748-2.718,7.5c-2.193-.217-4.4-.309-6.44-.35a2.1,2.1,0,0,0-.423,4.186,40.448,40.448,0,0,1,4.911,1.557q-.8,2.211-1.6,4.423c-1.045,2.883,3.55,4.605,4.416,1.708l1.392-4.65a24.338,24.338,0,0,0,5.244,1.261C748.021,510.674,749.622,506.853,747.248,505.2Zm35.6,7.2a15.908,15.908,0,0,0-5.416-2.224q1.031-3.438,2.058-6.88c.67-2.237-2.619-3.584-3.437-1.33q-1.356,3.748-2.719,7.5c-2.193-.217-4.4-.309-6.44-.35a2.1,2.1,0,0,0-.423,4.186,40.2,40.2,0,0,1,4.907,1.557q-.8,2.211-1.6,4.423c-1.045,2.883,3.55,4.6,4.416,1.708l1.392-4.65a24.342,24.342,0,0,0,5.244,1.261C783.621,517.877,785.223,514.056,782.848,512.4Z" transform="translate(1627.57 1013.971)" fill="#e4e1e8"/>
        <path id="Path_144" data-name="Path 144" d="M705.016,144.858a9,9,0,0,1,4.7,5.921,5.769,5.769,0,0,1-.557,4.241c-.248.33-.5.653-.756.976.117-.144.23-.292.467-.588a2.2,2.2,0,0,1-1.547,1.461c.052,0,.034.024-.141.127a5.584,5.584,0,0,1-5.564,0,9.432,9.432,0,0,1-4.842-5.808C695.081,146.26,700.971,142.8,705.016,144.858Zm-22.252,19.853c2.327,2.739,4.014,4.347,7.674,4.643a2.852,2.852,0,0,0,2.8-2.8c.309-3.712-1.581-5.756-3.866-8.444C685.479,153.515,678.891,160.151,682.764,164.712Zm-17.575-26.2c.99,1.433,1.43,2.894,2.918,3.925a8.075,8.075,0,0,0,3.523,1.076,1.871,1.871,0,0,0,1.822-.481c1.285-1.629,2.041-3.186,1.464-5.327-.742-2.742-3.052-3.756-5.5-4.688C666.416,131.878,663.395,135.909,665.189,138.507Zm-15.616,26.448a60.566,60.566,0,0,0,4.561,6.794c1.845,2.612,6.781,1.138,5.557-2.34a66.421,66.421,0,0,0-3.251-8.461C654.092,156.405,647.229,160.419,649.573,164.956Zm17.987,7.987,4.712,3.093c2.292,1.505,4.574-1.777,2.835-3.667q-1.928-2.1-3.859-4.2C668.364,165.045,663.732,170.43,667.56,172.942ZM715.8,112.416c1.319,2.846,3.684,4.261,6.131,6.124,2.186,1.667,5.505-1.65,3.839-3.835-1.887-2.471-3.261-4.794-6.131-6.124A2.831,2.831,0,0,0,715.8,112.416Zm-1.134,24.369,2.2,2.925c2.5,3.327,8.186.072,5.653-3.3l-2.2-2.925C717.817,130.156,712.13,133.414,714.663,136.786Zm-28.2-17.465q4.263,3.428,8.52,6.856c2.433,1.959,7-.66,4.773-3.681q-3.16-4.279-6.316-8.554C689.369,108.433,681.767,115.547,686.458,119.321Zm-30.827-15.29q2.371,2.387,4.739,4.777c2.347,2.368,6.9-.849,4.773-3.681l-4-5.341C658.068,95.694,652.088,100.464,655.631,104.031Zm-17.52,15.437c1.268,2.746,3.822,4.351,6.11,6.207,4.117,3.33,9.973-2.148,5.952-5.945-2.44-2.3-4.547-4.746-7.839-5.75C638.953,112.946,636.829,116.692,638.111,119.468Zm1.595,21.843a21.789,21.789,0,0,0,3.952,6.873c3.282,3.928,8.88-1.718,5.622-5.615a10.827,10.827,0,0,1-1.907-3.368C645.665,134.421,637.981,136.48,639.706,141.312Zm42.006-4.1,4.227,3.825c3.464,3.138,7.763-2.224,3.966-5.134q-2.253-1.732-4.509-3.457C682.661,130.349,679.179,134.923,681.712,137.215Zm-66.667,24.191,7.99,7.382c2.87,2.65,7.179-1.632,4.3-4.3l-7.99-7.382C616.474,154.46,612.165,158.746,615.045,161.406Zm22.211,14.754q1.3,1.711,2.6,3.419a2.573,2.573,0,0,0,4.44-2.595q-.9-1.943-1.794-3.894C640.847,169.5,634.888,173.049,637.256,176.159Zm17.671,6.1,3.67,2.914c2.567,2.038,6.231-1.577,3.639-3.633l-3.67-2.914C656,176.589,652.339,180.2,654.927,182.259Zm-30.851-36.817q1.727,2.619,3.457,5.237c2.357,3.571,8.172-.038,5.653-3.3q-1.933-2.5-3.863-5C627.011,139.384,621.863,142.092,624.076,145.442Zm37.178,7.836q1.18,1.382,2.361,2.76c1.2,1.406,3.584-.433,2.57-1.98q-1-1.521-2-3.041A1.86,1.86,0,1,0,661.254,153.278ZM734.437,90.7c1.347,2.98,4,4.354,7.066,5.189,3.492.949,5.911-4.265,2.523-5.976a41.556,41.556,0,0,1-5.11-3.684C735.956,84.119,733.248,88.075,734.437,90.7Zm8.722,26.833,2.2,2.2c2.77,2.766,7.069-1.526,4.3-4.3l-2.2-2.2C744.689,110.475,740.389,114.767,743.159,117.537Zm-11.784,17.431c1.113,1.667,2.031,2.041,3.918,2.7a1.883,1.883,0,0,0,2.3-2.3c-.65-1.859-1.021-2.794-2.7-3.918C732.777,130.043,729.959,132.857,731.375,134.968Zm-14.407,19.7q2.279,2.108,4.557,4.22a2.571,2.571,0,0,0,3.636-3.633l-4.227-4.554C718.474,148.054,714.312,152.209,716.968,154.67Zm-17.857,14.9,3.66,2.928c3.258,2.608,7.918-1.99,4.629-4.626l-3.66-2.928C700.487,162.337,695.823,166.935,699.112,169.568ZM688.3,91.442q1.361,1.887,2.725,3.773c2.952,4.09,8.891-.43,5.509-4.244q-1.547-1.748-3.093-3.492C691.018,84.741,686.111,88.408,688.3,91.442Zm13.784,18.118,3.5,3.822c2.034,2.224,5.536-1.268,3.306-3.3q-1.912-1.748-3.825-3.492A2.1,2.1,0,0,0,702.088,109.56ZM707.614,82.1q2.113,2.639,4.227,5.286c2.217,2.77,6.451-1.265,3.97-3.962l-4.557-4.952C708.965,75.981,705.6,79.579,707.614,82.1Zm18.139,20.64,1.464,1.464c2.557,2.553,6.526-1.409,3.969-3.962l-1.464-1.464C727.165,96.226,723.2,100.189,725.753,102.742Zm4.5-41.034q3.335,2.876,6.674,5.753c3.4,2.931,8.385-2,4.959-4.956q-3.335-2.876-6.674-5.753C731.8,53.822,726.821,58.757,730.248,61.709Zm15.228,17.139,4.392,2.925c2.763,1.839,5.341-2.608,2.6-4.437l-4.392-2.925C745.31,72.568,742.733,77.019,745.475,78.847Zm-34.411-14.63,5.856,4.389c2.65,1.986,5.217-2.474,2.595-4.437l-5.856-4.389C711.013,57.8,708.446,62.255,711.064,64.217Zm-40.954,23.9q1.83,1.83,3.66,3.657c2.557,2.553,6.526-1.409,3.97-3.966l-3.66-3.657C671.519,81.6,667.553,85.562,670.11,88.116Zm-.337,17.159a22.58,22.58,0,0,1,4.33,4.2c1.735,2.481,6.073,1.065,5.128-2.158a10.857,10.857,0,0,0-5.5-7.172C670.632,98.467,666.752,102.849,669.773,105.275Zm-10.028,12.942q2.485,2.634,4.976,5.272c2.9,3.069,7.715-1.749,4.629-4.626q-2.655-2.469-5.306-4.938C661.181,111.255,657.054,115.365,659.745,118.217Zm-31.6-27.658a64.314,64.314,0,0,0,5.2,5.042c4.224,3.962,9.791-3.323,4.818-6.234a63.55,63.55,0,0,0-6.337-3.574A3.05,3.05,0,0,0,628.148,90.559Zm-25.16,31.7,2.2,2.193c3.2,3.193,8.159-1.76,4.959-4.956l-2.2-2.2C604.752,114.107,599.789,119.059,602.989,122.255Zm12.045-13.224q2.505,1.928,5.007,3.859c3.031,2.337,6.392-3.052,3.069-5.244l-5.244-3.454C614.773,102.155,612.264,106.9,615.034,109.031Zm6.1,22.792,1.354.918c4.581,3.107,8.835-5.409,3.062-7.258-.509-.165-1.021-.326-1.533-.491C619.791,123.64,617.766,129.541,621.131,131.823ZM583.692,137.1l2.928,2.193c4.093,3.065,8.062-3.825,4.011-6.856l-2.928-2.193C583.61,127.177,579.644,134.067,583.692,137.1Zm19.389,6.268,1.464,1.464c2.131,2.127,5.44-1.172,3.306-3.3l-1.464-1.461C604.257,137.937,600.951,141.239,603.082,143.37Zm-12.259,15.513c4.214,0,4.22-6.54,0-6.54S586.6,158.883,590.823,158.883ZM624.5,183.311c2.708,0,2.712-4.2,0-4.2S621.791,183.311,624.5,183.311Zm-25.177-9.863,1.464,1.464c3.2,3.193,8.159-1.76,4.959-4.956l-1.464-1.464C601.092,165.3,596.129,170.255,599.325,173.448Zm6.684-8.87,3.66,3.657c2.131,2.127,5.44-1.175,3.306-3.3l-3.66-3.657C607.185,159.144,603.879,162.447,606.01,164.578ZM578.544,72.263l10.131,7.516c2.87,2.127,5.825-2.787,2.832-4.839q-5.186-3.557-10.368-7.11C578.372,65.929,575.939,70.331,578.544,72.263Zm38.638-7.492c4.516,0,4.522-7.007,0-7.007S612.659,64.771,617.182,64.771Zm27.362,1.976q2.815,2.026,5.629,4.048c4.358,3.134,9.1-4.681,4.248-7.262q-3.051-1.624-6.1-3.244C644,57.994,640.689,63.97,644.545,66.747Zm-41.226,2.519q4.227,3.454,8.454,6.911c3.908,3.193,8.454-2.622,4.251-5.5Q611.514,67.587,607,64.5C604.188,62.571,600.635,67.073,603.319,69.266Zm7.667-28.314q2.505,1.562,5.011,3.12c4.11,2.56,8.045-4.244,3.777-6.454q-2.624-1.356-5.248-2.715C610.522,32.827,607.137,38.556,610.986,40.951ZM633.1,76.524l2.2,1.461c3.516,2.34,6.8-3.32,3.3-5.646l-2.2-1.464C632.891,68.537,629.609,74.2,633.1,76.524Zm25.7-36.346q2.681,2.077,5.361,4.151c4.75,3.677,9.743-3.818,4.818-6.238q-3.109-1.526-6.21-3.052C659.669,33.521,655.672,37.759,658.8,40.178ZM673.557,67.7c4.516,0,4.523-7.007,0-7.007S669.038,67.7,673.557,67.7Zm-30.9,17.853a34.579,34.579,0,0,0,10.959,7.763c3.815,1.7,7.148-3.935,3.3-5.646a29.764,29.764,0,0,1-9.633-6.743C644.369,77.878,639.744,82.507,642.655,85.552ZM682.509,56.9q2.258.995,4.509,1.993c2.684,1.186,5.048-2.526,2.361-4.035q-2.139-1.2-4.275-2.4C682.159,50.818,679.543,55.595,682.509,56.9Zm1.966,14.657,6.536,5.908c2.227,2.014,5.543-1.282,3.306-3.3l-6.536-5.908C685.554,66.245,682.238,69.537,684.475,71.562Zm-.052-41.621q2.031,1.995,4.062,3.987c3.784,3.712,9.063-2.687,4.533-5.87q-2.314-1.629-4.629-3.254C685.31,22.637,681.819,27.383,684.424,29.94ZM693.5,44.171c1.753,3.626,5.2,5.956,8.788,7.609,2.955,1.361,5.567-2.863,2.595-4.437s-5.162-3.877-7.712-6A2.347,2.347,0,0,0,693.5,44.171ZM712.243,33.6q2.845,3.01,5.691,6.018c3.107,3.282,8.248-1.852,4.959-4.956q-3.01-2.84-6.021-5.684C713.807,26.078,709.346,30.531,712.243,33.6Zm17.867,6.911q.9,1.583,1.794,3.162c1.98,3.492,7.306-.419,4.406-3.4q-1.263-1.3-2.53-2.595C731.918,35.762,728.808,38.209,730.11,40.508Zm-16.493,6.8q1.732,2.619,3.464,5.234c2.392,3.615,7.5-.165,4.773-3.681q-1.918-2.474-3.832-4.952C716.082,41.4,711.872,44.673,713.618,47.313Zm30.607,4.048,1.464,2.193c1.495,2.241,5.141.137,3.632-2.124l-1.464-2.193C746.362,47,742.716,49.1,744.225,51.361ZM719.659,8.637q3.861,3.82,7.722,7.643c2.385,2.358,6.151-1.54,3.636-3.633q-4.191-3.49-8.386-6.983C720.591,3.959,717.7,6.7,719.659,8.637Zm14.252,15.747q2.2,1.83,4.388,3.66c1.608,1.34,3.935-.962,2.316-2.313l-4.392-3.66C734.619,20.734,732.293,23.033,733.911,24.383ZM703.39,11.723a23.96,23.96,0,0,0,6.939,5.691c2.928,1.612,5.554-3.017,2.6-4.437a20.3,20.3,0,0,1-6.231-4.56C704.614,6.19,701.493,9.451,703.39,11.723ZM699.153-9.643a35.884,35.884,0,0,0,9.836,7.1c2.725,1.33,5.079-2.839,2.361-4.035a32.359,32.359,0,0,1-9.221-6.035C700.153-14.461,697.242-11.578,699.153-9.643ZM674.5,8.4l3.66,2.925c2.794,2.23,6.787-1.708,3.969-3.962l-3.66-2.925C675.677,2.2,671.68,6.145,674.5,8.4Zm.144-20.572q6.227,3.284,12.461,6.571c2.388,1.261,4.485-2.282,2.124-3.629l-12.224-6.976C674.382-17.7,671.99-13.574,674.646-12.172Zm20.709,34.105,2.031,1.629c2.976,2.382,6.306-2.3,3.117-4.035-.773-.419-1.543-.842-2.316-1.261C695.967,17.056,693.2,20.208,695.355,21.933ZM652,11.888q3.176,2.4,6.354,4.791c2.588,1.952,5.519-2.732,2.595-4.437q-3.413-1.995-6.825-3.987C651.717,6.856,649.892,10.3,652,11.888ZM638.582-12.574l8.056,5.121c2.8,1.78,5.385-2.663,2.595-4.437q-4.026-2.562-8.055-5.121C638.376-18.791,635.792-14.344,638.582-12.574Zm12.681-6.251,10.248,4.389c2.464,1.055,4.608-2.567,2.124-3.629l-10.252-4.389C650.926-23.51,648.779-19.891,651.263-18.826ZM662.577,2.9c3.01,0,3.014-4.67,0-4.67S659.563,2.9,662.577,2.9Zm6.141,26.012,3.66,2.193c2.588,1.55,4.942-2.488,2.361-4.035l-3.66-2.193C668.491,23.328,666.137,27.366,668.718,28.913Zm-34.7-9.19c3.01,0,3.014-4.67,0-4.67S631.008,19.723,634.022,19.723Zm12.939,26.431q4.191,3.5,8.382,6.983c1.818,1.516,4.385-.921,2.646-2.643q-3.861-3.825-7.722-7.647C648.1,40.707,644.675,44.251,646.961,46.154ZM631.815,34.222a26.563,26.563,0,0,0,7.839,6.743,1.87,1.87,0,0,0,1.887-3.227,22.632,22.632,0,0,1-6.42-6.062A2.1,2.1,0,1,0,631.815,34.222Zm9.808-11.155q5.124,3.294,10.248,6.581c2.54,1.629,4.887-2.413,2.361-4.035l-10.252-6.581C641.445,17.4,639.1,21.445,641.624,23.067ZM627.977,49.021a23.793,23.793,0,0,0,7.176,5.289c2.413,1.158,4.526-2.309,2.124-3.629a20.5,20.5,0,0,1-5.994-4.963C629.379,43.433,625.9,46.8,627.977,49.021ZM604.666,12.7a26.467,26.467,0,0,1,6.375,4.244c3.708,3.368,8.4-2.485,4.251-5.5a32.416,32.416,0,0,0-8.282-4.289C603.79,6,601.563,11.193,604.666,12.7Zm22.39-9.557a31.906,31.906,0,0,0,8.609,5.468c3.01,1.278,5.636-3.148,2.595-4.437a27.746,27.746,0,0,1-7.567-4.664C628.21-2.663,624.557.959,627.056,3.138Zm10.612-6.213A15.148,15.148,0,0,0,647.2.512c2.712.069,2.708-4.138,0-4.2a10.472,10.472,0,0,1-6.557-2.354C638.561-7.742,635.565-4.787,637.668-3.075ZM615.7-17.939a30.113,30.113,0,0,1,8.966,3.172c2.907,1.591,5.43-2.715,2.6-4.437A34.63,34.63,0,0,0,617.2-23.345C613.656-24.187,612.185-18.609,615.7-17.939ZM601.092-9.973q4.387,1.84,8.774,3.684c3.323,1.4,4.777-4.028,1.492-5.406q-4.387-1.84-8.774-3.684C599.26-16.774,597.81-11.354,601.092-9.973Zm7.942,9.025,5.124,2.925a1.637,1.637,0,0,0,1.653-2.825l-5.124-2.925C608.855-4.814,607.2-1.993,609.034-.948ZM580.142-5.217A21.081,21.081,0,0,1,588.4-2.185c2.045,1.278,3.993-2.052,1.887-3.227a24.454,24.454,0,0,0-9.712-3.014C578.764-8.612,578.317-5.491,580.142-5.217ZM590.493,19.2q3.6,2.294,7.2,4.591c2.54,1.615,4.99-2.553,2.361-4.035q-3.717-2.093-7.44-4.186C590.246,14.238,588.215,17.751,590.493,19.2ZM613.914,28.7a20.181,20.181,0,0,0,9.224,4.9c2.925.674,4.151-3.677,1.244-4.505a15.142,15.142,0,0,1-6.829-4.028C615.21,22.706,611.47,26.473,613.914,28.7ZM579.953,44.508a26.277,26.277,0,0,1,7.423,4.117c3.172,2.522,6.8-2.186,3.4-4.4A32.264,32.264,0,0,0,581.193,40C578.242,39.233,577.159,43.491,579.953,44.508ZM605.23,90.717q2.928,1.835,5.849,3.667c2.045,1.282,3.925-1.952,1.887-3.227q-2.923-1.835-5.853-3.667C605.071,86.208,603.192,89.439,605.23,90.717ZM593.067,102.45q2.505,1.567,5.007,3.127c3.333,2.083,6.536-3.444,3.069-5.244q-2.624-1.361-5.244-2.725C592.7,95.948,589.995,100.529,593.067,102.45Zm-17.314,5.413q4.449,2.459,8.9,4.918a2.1,2.1,0,0,0,2.124-3.629q-4.335-2.66-8.667-5.32C575.544,102.254,573.117,106.409,575.754,107.863Zm-9.681,32.249,3.66,3.657a1.871,1.871,0,0,0,2.646-2.643l-3.66-3.657A1.871,1.871,0,0,0,566.073,140.112Zm5.949,13.8,6.056,5.653a1.4,1.4,0,0,0,1.983-1.983q-2.861-2.99-5.726-5.983C572.877,150.082,570.478,152.481,572.021,153.917Zm-16.015-40.666a20.1,20.1,0,0,0,8.375,7.719c3.5,1.715,6.585-3.519,3.069-5.244a14.344,14.344,0,0,1-6.193-5.54C559.216,106.859,553.958,109.908,556.006,113.251ZM553.642,97.69a14.5,14.5,0,0,0,7.674,4.354,3.507,3.507,0,0,0,1.866-6.756,6.736,6.736,0,0,1-3.3-2.413C556.532,88.2,549.7,93.5,553.642,97.69Zm4.2-18.819,8.093,6.536c3.014,2.437,7.344-1.835,4.3-4.292l-8.093-6.536C559.127,72.142,554.8,76.414,557.845,78.871Zm-1.426-35.006c1.378,2.478,4.3,4.055,6.519,5.774,2.113,1.639,5.114-1.313,2.976-2.973-2.351-1.825-4.725-4.437-7.646-5.2A1.656,1.656,0,0,0,556.419,43.866Zm-.887,17.249,5.073,3.725c3.4,2.5,6.667-3.175,3.3-5.646q-2.536-1.861-5.073-3.725C555.436,52.973,552.168,58.643,555.532,61.114Zm28.136.911,6.588,3.657c2.9,1.608,5.5-2.828,2.595-4.437l-6.588-3.657C583.369,55.98,580.771,60.416,583.668,62.025Zm-6.341-32.782a14.621,14.621,0,0,1,5.8,3.138c2.141,1.87,5.543-.478,4.038-3.114a22.16,22.16,0,0,0-6.781-7.279C575.839,18.8,571.485,27.576,577.327,29.243Zm-16.613-.2c1.547,2.282,4.306,3.065,6.536,4.605,1.681,1.158,4.131-1.189,2.88-2.876-1.9-2.56-3.832-5.3-7.2-5.595A2.584,2.584,0,0,0,560.715,29.043Zm38.965,18.987,7.595,6.292c2.736,2.265,6.674-1.5,3.969-3.962q-3.634-3.309-7.265-6.622C601.064,41.082,596.7,45.56,599.679,48.031ZM572.251,11.389l4.571,1.536c3.186,1.072,4.622-3.4,2.162-5.121q-2.016-1.407-4.028-2.818C571,2.224,567.138,9.668,572.251,11.389Zm-22.42,41.889c3.481.378,4.011-5.059.808-5.963-2.038-.577-3.189-2.248-5.217-2.794a3.07,3.07,0,0,0-3.739,3.736C542.583,51.8,546.58,52.925,549.831,53.279Zm-8.8,20.754q2.381,1.144,4.767,2.292c2.234,1.076,4.973-1.815,2.835-3.667q-1.959-1.7-3.914-3.392C541.222,66.235,537.236,72.208,541.033,74.032Zm3.949,30.208,2.928,2.2c2.409,1.8,4.743-2.251,2.361-4.035l-2.928-2.193C544.934,98.405,542.6,102.457,544.982,104.241Z" transform="translate(1313.742 -57.097)" fill="#cf63bd"/>
        <path id="Path_146" data-name="Path 146" d="M822.009,414.686c5.646,7.018-110.55,112.443-128.572,125.451-5.468,3.945-9.911,10.217-9.427,17.541,45.35-22.94,113.509-98.7,117.331-97.305s-28.889,35.349-46.811,47.687c-24.115,18.95-41.374,40.236-65.5,54.728-7.688,5.526-2.932,8.513-2.337,11.283,4.031,12.526,25.039,30.789,30.311,25.806s4.361-3.333,6.474-6.547c3.189-4.849,4.674,12.114,10.059,10.231s100.718-91.885,103.993-85.689-38.841,31.164-57.643,47.192c-14.5,13.843-28.785,28.2-43.614,42.092,3.467,4.378,7.124,7.75,12.647,6.939,9.348.478,19.52-19.974,29.765-27.325,30.421-18.173,54.1-47.185,82.177-67.98,20.128-15.437,34.9-35.765,49.347-56.223,18.754-28.988,49.769-51.911,60.1-79.651,8.337-25.287-36.208-31.913-47.549-26.572s-8.98.216-7.248-5.884-3.182-26.589-14.087-30.909S777.8,458.383,727.265,505.6c33.775-29.184,60.457-53.357,87.988-88.456C816.631,415.089,819.3,411.322,822.009,414.686Z" transform="translate(1665.795 778.392)" fill="#0455bf"/>
        <path id="Path_147" data-name="Path 147" d="M353.756,61.113c-5.4,19.819-3.9,42.281-12.6,61.189-13.819,30.016-33.507-18.279-44.3-28-12.812-11.54-33.3-24.228-47.408-10.929-14.063,13.259-15.606,38.4-19.592,56.22-2.973,13.289-7.079,46.587-24.692,49.395-18.314,2.914-33.459-31.084-53.24-19.506-15.884,9.3-23.194,42.924-23.957,59.56-.643,14.059,1.608,49.886,22.651,48.91,3.148-.148,8.677-2.828,12.368-6.124A16.405,16.405,0,0,0,167.7,266.3c7.877-14.468-8.537-49.663,13.125-55.041,21.826-5.416,32.253,28.8,51.223,34.449,21.036,6.265,34.033-20.166,34.947-38.621.608-12.262-12.832-44.975-1.883-56.117,14.558-14.815,38.133,18.836,47.422,25.445,14.516,10.327,38.078,22.132,50.859,3.519,12.915-18.809,8.107-43.412,14.369-64.265,2.327-7.75,5.255-16.365,14.07-18.352,10.351-2.333,15.561,9.382,22.2,15.864,7.128,6.956,14.795,14.994,24.881,8.368,7.681-5.045,10-13.846,7.767-22C438.62,70.144,368.169,8.247,353.756,61.113Z" transform="translate(310.776 98.594)" fill="#052ed8"/>
        <g id="Group_43" data-name="Group 43" transform="translate(620.493 1205.325)">
          <g id="Group_42" data-name="Group 42">
            <g id="Group_41" data-name="Group 41">
              <path id="Path_160" data-name="Path 160" d="M225.352,543.527a93.649,93.649,0,0,1-55-101.786,67.867,67.867,0,0,1,32.6-8.88S169.915,486.035,225.352,543.527Z" transform="translate(-168.981 -363.968)" fill="#cf3a3a"/>
              <path id="Path_161" data-name="Path 161" d="M207.033,455.867c-1.715,2.138-3.406,4.344-5.052,6.691a67.867,67.867,0,0,0-32.6,8.88c.2-1.138.388-2.272.629-3.409a93.184,93.184,0,0,1,25.861-47.357C196.912,432.631,199.888,445.89,207.033,455.867Z" transform="translate(-168.007 -393.666)" fill="#0455bf"/>
              <path id="Path_162" data-name="Path 162" d="M188.251,475.014c-7.141-9.977-10.117-23.239-11.162-35.195a93.6,93.6,0,0,1,128.96-2.426C271.683,430.644,223.082,431.561,188.251,475.014Z" transform="translate(-149.225 -412.814)" fill="#cf3a3a"/>
              <path id="Path_163" data-name="Path 163" d="M208.19,543.527c-55.433-57.492-22.4-110.667-22.4-110.667s26.62,62.908,105.608,106.288a93.74,93.74,0,0,1-83.211,4.378Z" transform="translate(-151.819 -363.968)" fill="#052ed8"/>
              <path id="Path_164" data-name="Path 164" d="M181.5,461.366c-.406-.512-.784-1.048-1.162-1.578,34.834-43.453,83.431-44.374,117.8-37.621a93.578,93.578,0,0,1,29.514,81.885C227.8,497.448,181.5,461.366,181.5,461.366Z" transform="translate(-141.311 -397.589)" fill="#052ed8"/>
              <path id="Path_165" data-name="Path 165" d="M178.867,437.6c1.643-2.347,3.337-4.554,5.052-6.691.381.533.759,1.065,1.162,1.578,0,0,46.3,36.081,146.15,42.686-.3,2.151-.646,4.3-1.1,6.461A93.384,93.384,0,0,1,284.478,543.9C205.487,500.515,178.867,437.6,178.867,437.6Z" transform="translate(-144.893 -368.713)" fill="#cf3a3a"/>
            </g>
          </g>
          <path id="Path_166" data-name="Path 166" d="M185.13,493.828c13.1,5.55,30.3-5.492,38.429-24.665s4.086-39.212-9.014-44.766-30.3,5.492-38.429,24.665S172.029,488.278,185.13,493.828Z" transform="translate(-161.816 -388.085)" fill="#f2c900"/>
        </g>
        <ellipse id="Ellipse_11" data-name="Ellipse 11" cx="173.966" cy="173.774" rx="173.966" ry="173.774" transform="translate(1418.907 1370.609)" fill="#cf3a3a"/>
      </g>
    </g>
  </g>
</svg>
