<svg xmlns="http://www.w3.org/2000/svg" width="44.768" height="44.769" viewBox="0 0 44.768 44.769">
  <path id="Subtraction_1" data-name="Subtraction 1" d="M36.768,44.769H8a8.009,8.009,0,0,1-8-8V8A8.009,8.009,0,0,1,8,0H36.768a8.009,8.009,0,0,1,8,8V36.769A8.009,8.009,0,0,1,36.768,44.769ZM18.716,19.25a9.7,9.7,0,1,0,9.706,9.705V18.289a12.461,12.461,0,0,0,7.3,2.343h.03V15.416h0a7.224,7.224,0,0,1-3.994-1.2,7.325,7.325,0,0,1-3.218-4.788A7.259,7.259,0,0,1,28.422,8.1H23.17V28.956a4.454,4.454,0,1,1-3.117-4.248V19.343A9.757,9.757,0,0,0,18.716,19.25Z" fill="#fff"/>
</svg>
