<svg xmlns="http://www.w3.org/2000/svg" width="42.991" height="42.991" viewBox="0 0 42.991 42.991">
  <path id="_8546998_whatsapp_square_icon" data-name="8546998_whatsapp_square_icon" d="M21.5,40.713A12.647,12.647,0,0,0,10.777,60.088l.3.48L9.8,65.232l4.789-1.257.461.278a12.615,12.615,0,0,0,6.439,1.766h.01a12.55,12.55,0,0,0,8.944-21.592A12.551,12.551,0,0,0,21.5,40.713Zm7.437,18.079a3.878,3.878,0,0,1-2.562,1.8c-1.209.182-2.15.086-4.558-.95-3.81-1.651-6.3-5.489-6.5-5.739a7.368,7.368,0,0,1-1.555-3.934A4.258,4.258,0,0,1,15.095,46.8a1.385,1.385,0,0,1,1.017-.48c.25,0,.509,0,.729.01s.547-.086.854.653c.317.758,1.075,2.629,1.171,2.821a.672.672,0,0,1,.029.662c-.729,1.459-1.507,1.4-1.113,2.073a10.36,10.36,0,0,0,5.172,4.52c.384.192.6.163.825-.1s.95-1.113,1.2-1.487.509-.317.854-.192,2.217,1.046,2.6,1.238.633.288.729.441A3.376,3.376,0,0,1,28.933,58.793ZM38.385,32H4.606A4.607,4.607,0,0,0,0,36.606V70.385a4.607,4.607,0,0,0,4.606,4.606H38.385a4.607,4.607,0,0,0,4.606-4.606V36.606A4.607,4.607,0,0,0,38.385,32Zm-16.9,36.581a15.2,15.2,0,0,1-7.274-1.852L6.142,68.85,8.3,60.962A15.246,15.246,0,1,1,36.85,53.371a15.359,15.359,0,0,1-15.364,15.21Z" transform="translate(0 -32)" fill="#fff"/>
</svg>
