<svg id="youtube__x2C__social__x2C_media__x2C__icons_x2C_" xmlns="http://www.w3.org/2000/svg" width="44.855" height="44.855" viewBox="0 0 44.855 44.855">
  <g id="Group_106" data-name="Group 106" transform="translate(0 0)">
    <path id="Path_376" data-name="Path 376" d="M222.9,205.461v8.772l8.085-4.37-4.441-2.415Z" transform="translate(-203.565 -187.756)" fill="#fff" fill-rule="evenodd"/>
    <path id="Path_377" data-name="Path 377" d="M55.106,16H21.749A5.77,5.77,0,0,0,16,21.749V55.106a5.77,5.77,0,0,0,5.749,5.749H55.106a5.77,5.77,0,0,0,5.749-5.749V21.749A5.77,5.77,0,0,0,55.106,16ZM53.379,37.674V39.6a50.365,50.365,0,0,1-.292,5.054,6.891,6.891,0,0,1-1.185,3.1,4.182,4.182,0,0,1-2.995,1.324c-4.192.313-10.481.325-10.481.325s-7.783-.076-10.179-.315a4.956,4.956,0,0,1-3.3-1.334,6.884,6.884,0,0,1-1.178-3.1,50.605,50.605,0,0,1-.291-5.054V37.237a50.549,50.549,0,0,1,.291-5.052,6.921,6.921,0,0,1,1.183-3.1,4.129,4.129,0,0,1,3-1.3c4.188-.316,10.472-.293,10.472-.293h.014s6.283-.022,10.475.291a4.161,4.161,0,0,1,3,1.312,6.853,6.853,0,0,1,1.181,3.093,50.189,50.189,0,0,1,.292,5.047Z" transform="translate(-16 -16)" fill="#fff" fill-rule="evenodd"/>
  </g>
</svg>
